<svg width="177" height="170" viewBox="0 0 177 170" fill="none" xmlns="http://www.w3.org/2000/svg">
<rect width="177" height="170" fill="#244030"/>
<path d="M74.1849 52.5602C74.227 53.5651 74.6434 55.1035 74.6434 55.1035H72.1982C72.1982 55.1035 72.2361 55.8721 72.3511 56.1743C72.4661 56.4765 72.8957 57.219 73.5736 57.9145C74.2336 58.5915 74.6259 59.0368 75.5603 59.3869C75.9598 59.5365 76.6301 59.6546 76.6301 59.6546C76.6301 59.6546 77.1158 60.6699 77.547 61.2609C78.0944 62.0109 78.3883 62.345 79.0752 63.001C79.8169 63.7092 80.3344 64.1675 81.2147 64.7411C82.1358 65.3413 82.7137 65.6553 83.8127 65.9458C85.2422 66.3238 86.1732 66.3539 87.6332 66.0797C88.9905 65.8248 89.7105 65.4449 90.8425 64.7411C91.9167 64.0733 92.41 63.5429 93.2254 62.6663L93.2876 62.5994C94.2709 61.5428 95.4271 59.6546 95.4271 59.6546C95.4271 59.6546 96.2224 59.6008 96.6497 59.3869C97.7195 58.8515 99.0949 57.7806 99.7062 57.1113C100.09 56.6911 100.357 56.4356 100.47 55.9066C100.536 55.5984 100.47 55.2374 100.317 55.1035C100.165 54.9696 97.5666 55.1035 97.5666 55.1035C97.5666 55.1035 98.0452 53.3192 98.0251 52.1587C98.0105 51.3159 98.045 50.8462 97.8723 50.017C97.7294 49.3308 97.5302 48.9332 97.261 48.2768C96.9903 47.6168 96.7504 47.2749 96.3441 46.6706C95.823 45.8956 95.4986 45.4683 94.8159 44.7966C94.1698 44.161 93.7786 43.8112 92.982 43.3242C92.1066 42.7889 91.5162 42.6255 90.5368 42.2533C89.7743 41.9635 88.3974 41.584 88.3974 41.584C88.3974 41.584 88.613 40.5257 88.2445 39.9777C87.9875 39.5956 87.7162 39.459 87.3276 39.1746C87.0986 39.007 86.7163 38.773 86.7163 38.773C86.7163 38.773 87.0569 38.0271 87.4804 37.7022C88.0483 37.2666 88.5622 37.2244 89.3143 37.1668C90.2237 37.097 90.7848 37.22 91.6066 37.5683C92.3701 37.892 92.7377 38.2074 93.2876 38.773C93.9454 39.4496 94.2409 40.3793 94.5102 40.7809C95.0133 41.5311 95.2243 42.0057 95.8856 42.6549C96.5063 43.2641 96.9304 43.5587 97.7195 43.9934C98.6017 44.4795 99.1364 44.6469 100.165 44.7966C101.108 44.9339 102.151 44.8887 102.61 44.7966C103.42 44.6337 103.806 44.5944 104.444 44.1273C105.041 43.69 105.42 43.3015 105.666 42.6549C105.987 41.8118 105.853 41.2529 105.666 40.3793C105.528 39.7293 105.055 38.773 105.055 38.773C105.055 38.773 104.828 40.5005 104.749 40.9147C104.596 41.7179 104.518 41.9616 103.985 42.3872C103.51 42.7665 103.095 42.8526 102.457 42.9226C101.737 43.0017 101.303 42.877 100.623 42.6549C99.9709 42.4419 99.6292 42.2424 99.0949 41.8517C98.4437 41.3756 98.2055 40.9882 97.7195 40.3793C97.0917 39.5928 96.9711 39.0246 96.3441 38.2376C95.6661 37.3867 95.2857 36.8743 94.3574 36.2298L94.317 36.2017C93.5867 35.6945 93.1295 35.377 92.2179 35.1589C91.2392 34.9248 90.6114 34.9705 89.6199 35.1589C88.7316 35.3278 88.2184 35.4971 87.4804 35.9621C86.6554 36.4819 86.1832 36.8779 85.7994 37.7022C85.5916 38.1485 85.4937 38.9069 85.4937 38.9069C85.4937 38.9069 84.2701 39.5156 83.9655 40.2455C83.7401 40.7855 83.8127 41.7179 83.8127 41.7179C83.8127 41.7179 82.5792 41.8932 81.826 42.1194C80.4606 42.5297 79.7528 42.8119 78.6168 43.5919C77.4538 44.3903 76.8176 45.0463 76.0188 46.1351C75.0899 47.4014 74.8398 48.2756 74.4906 49.7492C74.2347 50.829 74.1388 51.4582 74.1849 52.5602Z" fill="white"/>
<path d="M73.7265 80.1346C73.4601 80.9792 72.9624 82.2763 72.9624 82.2763C72.9624 82.2763 74.0396 81.3935 74.7963 80.8039C75.5901 80.1852 76.0797 79.7489 76.9358 79.1976C77.2414 79.0008 78.0055 78.3753 78.9225 77.859C79.8394 77.3427 80.145 77.1897 81.062 76.7882C81.9789 76.3866 83.5071 76.1189 83.5071 76.1189C83.5071 76.1189 82.0396 76.1923 81.6732 76.2528C80.8335 76.3913 80.3337 76.5251 79.5337 76.7882C78.5564 77.1096 78.0864 77.4559 77.2414 77.9929C75.9771 78.7963 74.3378 80.4023 74.3378 80.4023C74.3378 80.4023 74.9912 78.4113 74.6434 77.1897C74.5201 76.7564 74.185 76.1189 74.185 76.1189C74.185 76.1189 74.3405 77.5973 74.185 78.5283C74.0781 79.1681 73.9231 79.5113 73.7265 80.1346Z" fill="white"/>
<path d="M100.164 83.6148C100.378 84.3186 100.776 85.4888 100.776 85.4888L99.7059 84.5518C99.4003 84.2841 98.3241 83.4754 97.4136 82.8117C96.5324 82.1693 96.0823 81.8868 95.1213 81.3393C94.2708 80.8547 92.8289 80.2684 92.8289 80.2684L90.3838 79.3314C90.3838 79.3314 92.5975 79.5372 93.8987 80.0007C94.7149 80.2915 95.1378 80.5291 95.8854 80.9377C96.5034 81.2755 96.8419 81.4792 97.4136 81.8747C97.9114 82.2191 98.1876 82.4188 98.6362 82.8117C99.0848 83.2046 99.7059 83.8825 99.7059 83.8825C99.7059 83.8825 99.3677 83.2457 99.2474 82.8117C99.1339 82.4021 99.1001 81.9335 99.0946 81.7408C99.0881 81.5096 99.0597 80.9012 99.2474 80.4023C99.3728 80.0692 99.7059 79.5991 99.7059 79.5991C99.7059 79.5991 99.7289 81.073 99.8587 82.0085C99.9464 82.6398 99.9782 83.0001 100.164 83.6148Z" fill="white"/>
<path d="M63.793 69.5599C63.2876 70.1356 63.0502 70.4988 62.7232 71.1662C62.5 71.6219 62.4056 71.8906 62.2648 72.3709C61.8341 73.8401 61.972 74.6465 61.8063 76.2527C61.6407 77.859 61.3479 79.733 61.195 80.4023C61.0422 81.0716 60.8457 81.8747 61.195 84.0164C61.488 85.8127 61.9214 86.778 62.2648 88.5675C62.3949 89.2455 62.2118 89.696 62.5704 90.3076C62.9174 90.8995 63.2983 91.1645 63.9458 91.5123C64.6378 91.8841 65.14 92.0278 65.9325 92.1816C67.0457 92.3976 68.8361 92.3155 68.8361 92.3155C68.8361 92.3155 72.0406 90.0704 74.0321 88.5675C75.793 87.2385 76.5983 86.3018 78.4639 85.0872C79.8856 84.1617 80.6609 83.5662 82.2844 82.9455C83.3743 82.5289 85.188 82.1424 85.188 82.1424C85.188 82.1424 81.485 83.9865 79.3808 85.4888C77.2874 86.9835 76.3407 88.0488 74.4905 89.7722C73.3327 90.8507 71.5869 92.5832 71.5869 92.5832C71.5869 92.5832 72.0481 96.9023 72.1982 99.6776C72.3564 102.602 72.0428 104.258 72.351 107.173C72.5176 108.749 72.589 109.641 72.9623 111.189C73.2825 112.517 73.4652 113.273 74.0321 114.536C74.7552 116.147 75.2822 117.038 76.4772 118.417C77.5998 119.713 78.4464 120.287 79.8393 121.362C81.4689 122.621 82.4699 123.243 84.2711 124.307C86.6648 125.721 88.2201 126.21 90.6896 127.52C93.4227 128.969 95.1524 129.568 97.5666 131.401C99.1294 132.588 100.137 133.212 101.234 134.748C102.158 136.04 102.54 136.874 102.915 138.362C103.317 139.955 103.227 140.928 103.08 142.522L103.068 142.645C102.916 144.291 102.151 146.795 102.151 146.795C102.151 146.795 104.345 144.506 105.208 142.779C105.783 141.628 105.997 140.933 106.277 139.701C106.663 138.006 106.738 137.006 106.583 135.283C106.459 133.904 106.273 133.129 105.819 131.803C105.334 130.39 104.924 129.628 104.138 128.323C103.273 126.886 102.659 126.137 101.54 124.843C100.493 123.631 99.7198 123.084 98.6363 121.898C97.1675 120.289 96.3592 119.366 95.1214 117.614C93.9131 115.904 93.2568 114.918 92.3706 113.063C91.6423 111.538 91.3276 110.645 90.8424 109.047C90.4813 107.858 90.0783 105.969 90.0783 105.969C90.0783 105.969 91.1501 108.954 92.065 110.788C92.9524 112.566 93.4922 113.557 94.663 115.205C95.6345 116.572 96.0768 117.446 97.4138 118.551C98.1256 119.14 99.4004 119.89 99.4004 119.89C99.4004 119.89 97.9721 117.261 97.4138 115.473C96.9815 114.088 96.8273 113.285 96.6497 111.858C96.3909 109.78 96.5215 108.592 96.6497 106.504C96.7915 104.193 96.9267 102.89 97.4138 100.615C97.8566 98.546 98.2946 97.421 98.942 95.3942C99.3948 93.9765 100.165 91.78 100.165 91.78C100.165 91.78 97.3524 89.8855 96.0384 88.2998C95.5813 87.7482 94.9686 86.8274 94.9686 86.8274C94.9686 86.8274 97.6878 89.2196 99.7061 90.4415C101.18 91.3337 102.457 92.2954 103.679 92.4493C104.991 92.6145 105.823 92.503 107.042 92.0478C108.14 91.6377 109.128 91.1108 109.487 90.4415C109.745 89.9589 109.686 89.6279 109.792 89.1029C110.054 87.8068 110.201 87.0608 110.404 85.7565C110.664 84.0789 111.154 83.1618 111.015 81.4731C110.945 80.6244 110.793 80.1567 110.556 79.3314C110.17 77.9843 109.587 77.2223 109.334 75.8512C109.115 74.6643 109.405 74.0925 109.181 72.9063C108.987 71.8787 108.786 71.2991 108.264 70.3631C107.573 69.1229 107.027 68.4383 105.819 67.5521C105.208 67.1036 104.309 66.607 103.221 66.2135C102.084 65.8023 101.082 65.6781 100.165 65.6781C98.1779 65.6781 96.0384 66.0064 94.9686 66.2135C93.2876 66.5389 90.384 67.4182 88.7029 67.9536C87.5756 68.3127 86.831 68.3872 85.6465 68.2214C85.0312 68.1352 83.952 67.8397 83.3542 67.6859C81.9788 67.3322 80.6961 66.9189 78.4639 66.4812C76.9219 66.1789 75.2546 65.8698 74.4905 65.8119C73.1824 65.7129 72.0454 65.6781 71.1284 65.8119C70.2115 65.9458 69.607 66.1447 68.6833 66.4812C67.2752 66.9943 65.3212 68.2214 65.3212 68.2214C65.3212 68.2214 64.3075 68.9739 63.793 69.5599Z" fill="white"/>
<path d="M78.1849 52.5602C78.227 53.5651 78.6434 55.1035 78.6434 55.1035H76.1982C76.1982 55.1035 76.2361 55.8721 76.3511 56.1743C76.4661 56.4765 76.8957 57.219 77.5736 57.9145C78.2336 58.5915 78.6259 59.0368 79.5603 59.3869C79.9598 59.5365 80.6301 59.6546 80.6301 59.6546C80.6301 59.6546 81.1158 60.6699 81.547 61.2609C82.0944 62.0109 82.3883 62.345 83.0752 63.001C83.8169 63.7092 84.3344 64.1675 85.2147 64.7411C86.1358 65.3413 86.7137 65.6553 87.8127 65.9458C89.2422 66.3238 90.1732 66.3539 91.6332 66.0797C92.9905 65.8248 93.7105 65.4449 94.8425 64.7411C95.9167 64.0733 96.41 63.5429 97.2254 62.6663L97.2876 62.5994C98.2709 61.5428 99.4271 59.6546 99.4271 59.6546C99.4271 59.6546 100.222 59.6008 100.65 59.3869C101.719 58.8515 103.095 57.7806 103.706 57.1113C104.09 56.6911 104.357 56.4356 104.47 55.9066C104.536 55.5984 104.47 55.2374 104.317 55.1035C104.165 54.9696 101.567 55.1035 101.567 55.1035C101.567 55.1035 102.045 53.3192 102.025 52.1587C102.011 51.3159 102.045 50.8462 101.872 50.017C101.729 49.3308 101.53 48.9332 101.261 48.2768C100.99 47.6168 100.75 47.2749 100.344 46.6706C99.823 45.8956 99.4986 45.4683 98.8159 44.7966C98.1698 44.161 97.7786 43.8112 96.982 43.3242C96.1066 42.7889 95.5162 42.6255 94.5368 42.2533C93.7743 41.9635 92.3974 41.584 92.3974 41.584C92.3974 41.584 92.613 40.5257 92.2445 39.9777C91.9875 39.5956 91.7162 39.459 91.3276 39.1746C91.0986 39.007 90.7163 38.773 90.7163 38.773C90.7163 38.773 91.0569 38.0271 91.4804 37.7022C92.0483 37.2666 92.5622 37.2244 93.3143 37.1668C94.2237 37.097 94.7848 37.22 95.6066 37.5683C96.3701 37.892 96.7377 38.2074 97.2876 38.773C97.9454 39.4496 98.2409 40.3793 98.5102 40.7809C99.0133 41.5311 99.2243 42.0057 99.8856 42.6549C100.506 43.2641 100.93 43.5587 101.719 43.9934C102.602 44.4795 103.136 44.6469 104.165 44.7966C105.108 44.9339 106.151 44.8887 106.61 44.7966C107.42 44.6337 107.806 44.5944 108.444 44.1273C109.041 43.69 109.42 43.3015 109.666 42.6549C109.987 41.8118 109.853 41.2529 109.666 40.3793C109.528 39.7293 109.055 38.773 109.055 38.773C109.055 38.773 108.828 40.5005 108.749 40.9147C108.596 41.7179 108.518 41.9616 107.985 42.3872C107.51 42.7665 107.095 42.8526 106.457 42.9226C105.737 43.0017 105.303 42.877 104.623 42.6549C103.971 42.4419 103.629 42.2424 103.095 41.8517C102.444 41.3756 102.205 40.9882 101.719 40.3793C101.092 39.5928 100.971 39.0246 100.344 38.2376C99.6661 37.3867 99.2857 36.8743 98.3574 36.2298L98.317 36.2017C97.5867 35.6945 97.1295 35.377 96.2179 35.1589C95.2392 34.9248 94.6114 34.9705 93.6199 35.1589C92.7316 35.3278 92.2184 35.4971 91.4804 35.9621C90.6554 36.4819 90.1832 36.8779 89.7994 37.7022C89.5916 38.1485 89.4937 38.9069 89.4937 38.9069C89.4937 38.9069 88.2701 39.5156 87.9655 40.2455C87.7401 40.7855 87.8127 41.7179 87.8127 41.7179C87.8127 41.7179 86.5792 41.8932 85.826 42.1194C84.4606 42.5297 83.7528 42.8119 82.6168 43.5919C81.4538 44.3903 80.8176 45.0463 80.0188 46.1351C79.0899 47.4014 78.8398 48.2756 78.4906 49.7492C78.2347 50.829 78.1388 51.4582 78.1849 52.5602Z" fill="#739536"/>
<path d="M77.7265 80.1346C77.4601 80.9792 76.9624 82.2763 76.9624 82.2763C76.9624 82.2763 78.0396 81.3935 78.7963 80.8039C79.5901 80.1852 80.0797 79.7489 80.9358 79.1976C81.2414 79.0008 82.0055 78.3753 82.9225 77.859C83.8394 77.3427 84.145 77.1897 85.062 76.7882C85.9789 76.3866 87.5071 76.1189 87.5071 76.1189C87.5071 76.1189 86.0396 76.1923 85.6732 76.2528C84.8335 76.3913 84.3337 76.5251 83.5337 76.7882C82.5564 77.1096 82.0864 77.4559 81.2414 77.9929C79.9771 78.7963 78.3378 80.4023 78.3378 80.4023C78.3378 80.4023 78.9912 78.4113 78.6434 77.1897C78.5201 76.7564 78.185 76.1189 78.185 76.1189C78.185 76.1189 78.3405 77.5973 78.185 78.5283C78.0781 79.1681 77.9231 79.5113 77.7265 80.1346Z" fill="white"/>
<path d="M104.164 83.6148C104.378 84.3186 104.776 85.4888 104.776 85.4888L103.706 84.5518C103.4 84.2841 102.324 83.4754 101.414 82.8117C100.532 82.1693 100.082 81.8868 99.1213 81.3393C98.2708 80.8547 96.8289 80.2684 96.8289 80.2684L94.3838 79.3314C94.3838 79.3314 96.5975 79.5372 97.8987 80.0007C98.7149 80.2915 99.1378 80.5291 99.8854 80.9377C100.503 81.2755 100.842 81.4792 101.414 81.8747C101.911 82.2191 102.188 82.4188 102.636 82.8117C103.085 83.2046 103.706 83.8825 103.706 83.8825C103.706 83.8825 103.368 83.2457 103.247 82.8117C103.134 82.4021 103.1 81.9335 103.095 81.7408C103.088 81.5096 103.06 80.9012 103.247 80.4023C103.373 80.0692 103.706 79.5991 103.706 79.5991C103.706 79.5991 103.729 81.073 103.859 82.0085C103.946 82.6398 103.978 83.0001 104.164 83.6148Z" fill="white"/>
<path d="M67.793 69.5599C67.2876 70.1356 67.0502 70.4988 66.7232 71.1662C66.5 71.6219 66.4056 71.8906 66.2648 72.3709C65.8341 73.8401 65.972 74.6465 65.8063 76.2527C65.6407 77.859 65.3479 79.733 65.195 80.4023C65.0422 81.0716 64.8457 81.8747 65.195 84.0164C65.488 85.8127 65.9214 86.778 66.2648 88.5675C66.3949 89.2455 66.2118 89.696 66.5704 90.3076C66.9174 90.8995 67.2983 91.1645 67.9458 91.5123C68.6378 91.8841 69.14 92.0278 69.9325 92.1816C71.0457 92.3976 72.8361 92.3155 72.8361 92.3155C72.8361 92.3155 76.0406 90.0704 78.0321 88.5675C79.793 87.2385 80.5983 86.3018 82.4639 85.0872C83.8856 84.1617 84.6609 83.5662 86.2844 82.9455C87.3743 82.5289 89.188 82.1424 89.188 82.1424C89.188 82.1424 85.485 83.9865 83.3808 85.4888C81.2874 86.9835 80.3407 88.0488 78.4905 89.7722C77.3327 90.8507 75.5869 92.5832 75.5869 92.5832C75.5869 92.5832 76.0481 96.9023 76.1982 99.6776C76.3564 102.602 76.0428 104.258 76.351 107.173C76.5176 108.749 76.589 109.641 76.9623 111.189C77.2825 112.517 77.4652 113.273 78.0321 114.536C78.7552 116.147 79.2822 117.038 80.4772 118.417C81.5998 119.713 82.4464 120.287 83.8393 121.362C85.4689 122.621 86.4699 123.243 88.2711 124.307C90.6648 125.721 92.2201 126.21 94.6896 127.52C97.4227 128.969 99.1524 129.568 101.567 131.401C103.129 132.588 104.137 133.212 105.234 134.748C106.158 136.04 106.54 136.874 106.915 138.362C107.317 139.955 107.227 140.928 107.08 142.522L107.068 142.645C106.916 144.291 106.151 146.795 106.151 146.795C106.151 146.795 108.345 144.506 109.208 142.779C109.783 141.628 109.997 140.933 110.277 139.701C110.663 138.006 110.738 137.006 110.583 135.283C110.459 133.904 110.273 133.129 109.819 131.803C109.334 130.39 108.924 129.628 108.138 128.323C107.273 126.886 106.659 126.137 105.54 124.843C104.493 123.631 103.72 123.084 102.636 121.898C101.168 120.289 100.359 119.366 99.1214 117.614C97.9131 115.904 97.2568 114.918 96.3706 113.063C95.6423 111.538 95.3276 110.645 94.8424 109.047C94.4813 107.858 94.0783 105.969 94.0783 105.969C94.0783 105.969 95.1501 108.954 96.065 110.788C96.9524 112.566 97.4922 113.557 98.663 115.205C99.6345 116.572 100.077 117.446 101.414 118.551C102.126 119.14 103.4 119.89 103.4 119.89C103.4 119.89 101.972 117.261 101.414 115.473C100.982 114.088 100.827 113.285 100.65 111.858C100.391 109.78 100.522 108.592 100.65 106.504C100.792 104.193 100.927 102.89 101.414 100.615C101.857 98.546 102.295 97.421 102.942 95.3942C103.395 93.9765 104.165 91.78 104.165 91.78C104.165 91.78 101.352 89.8855 100.038 88.2998C99.5813 87.7482 98.9686 86.8274 98.9686 86.8274C98.9686 86.8274 101.688 89.2196 103.706 90.4415C105.18 91.3337 106.457 92.2954 107.679 92.4493C108.991 92.6145 109.823 92.503 111.042 92.0478C112.14 91.6377 113.128 91.1108 113.487 90.4415C113.745 89.9589 113.686 89.6279 113.792 89.1029C114.054 87.8068 114.201 87.0608 114.404 85.7565C114.664 84.0789 115.154 83.1618 115.015 81.4731C114.945 80.6244 114.793 80.1567 114.556 79.3314C114.17 77.9843 113.587 77.2223 113.334 75.8512C113.115 74.6643 113.405 74.0925 113.181 72.9063C112.987 71.8787 112.786 71.2991 112.264 70.3631C111.573 69.1229 111.027 68.4383 109.819 67.5521C109.208 67.1036 108.309 66.607 107.221 66.2135C106.084 65.8023 105.082 65.6781 104.165 65.6781C102.178 65.6781 100.038 66.0064 98.9686 66.2135C97.2876 66.5389 94.384 67.4182 92.7029 67.9536C91.5756 68.3127 90.831 68.3872 89.6465 68.2214C89.0312 68.1352 87.952 67.8397 87.3542 67.6859C85.9788 67.3322 84.6961 66.9189 82.4639 66.4812C80.9219 66.1789 79.2546 65.8698 78.4905 65.8119C77.1824 65.7129 76.0454 65.6781 75.1284 65.8119C74.2115 65.9458 73.607 66.1447 72.6833 66.4812C71.2752 66.9943 69.3212 68.2214 69.3212 68.2214C69.3212 68.2214 68.3075 68.9739 67.793 69.5599Z" fill="#739536"/>
</svg>
