<svg width="671" height="118" viewBox="0 0 671 118" fill="none" xmlns="http://www.w3.org/2000/svg">
<path d="M79.8438 78.25H87.2344C88.8073 78.25 90.1719 78.5052 91.3281 79.0156C92.4844 79.526 93.375 80.2812 94 81.2812C94.6354 82.2708 94.9531 83.4896 94.9531 84.9375C94.9531 86.0104 94.724 86.9844 94.2656 87.8594C93.8177 88.7344 93.1979 89.4688 92.4062 90.0625C91.6146 90.6458 90.6979 91.0469 89.6562 91.2656L88.9844 91.5156H81.0938L81.0625 89.875H87.6719C88.8594 89.875 89.849 89.6458 90.6406 89.1875C91.4323 88.7292 92.026 88.125 92.4219 87.375C92.8281 86.6146 93.0312 85.8021 93.0312 84.9375C93.0312 83.9062 92.8073 83.0156 92.3594 82.2656C91.9219 81.5052 91.2708 80.9219 90.4062 80.5156C89.5417 80.1094 88.4844 79.9062 87.2344 79.9062H81.7656V101H79.8438V78.25ZM93.8906 101L88 90.8281L90.0625 90.8125L95.9375 100.797V101H93.8906ZM120.455 99.3594V101H107.658V99.3594H120.455ZM108.236 78.25V101H106.314V78.25H108.236ZM118.861 88.4531V90.0938H107.658V88.4531H118.861ZM120.377 78.25V79.9062H107.658V78.25H120.377ZM143.488 95.4062C143.488 94.7812 143.384 94.224 143.176 93.7344C142.967 93.2448 142.624 92.8073 142.144 92.4219C141.676 92.026 141.04 91.6615 140.238 91.3281C139.446 90.9844 138.457 90.6458 137.269 90.3125C136.134 89.9896 135.108 89.6354 134.191 89.25C133.275 88.8646 132.488 88.4219 131.832 87.9219C131.186 87.4219 130.691 86.8385 130.347 86.1719C130.004 85.4948 129.832 84.7083 129.832 83.8125C129.832 82.9375 130.019 82.1406 130.394 81.4219C130.769 80.7031 131.295 80.0833 131.972 79.5625C132.66 79.0417 133.467 78.6406 134.394 78.3594C135.332 78.0781 136.358 77.9375 137.472 77.9375C139.066 77.9375 140.441 78.2396 141.597 78.8438C142.764 79.4479 143.665 80.2656 144.301 81.2969C144.946 82.3177 145.269 83.4635 145.269 84.7344H143.347C143.347 83.7448 143.113 82.8646 142.644 82.0938C142.186 81.3125 141.519 80.7031 140.644 80.2656C139.78 79.8177 138.722 79.5938 137.472 79.5938C136.222 79.5938 135.17 79.7865 134.316 80.1719C133.472 80.5469 132.832 81.0521 132.394 81.6875C131.967 82.3125 131.754 83.0104 131.754 83.7812C131.754 84.3229 131.858 84.8229 132.066 85.2812C132.275 85.7292 132.613 86.151 133.082 86.5469C133.561 86.9323 134.191 87.2969 134.972 87.6406C135.754 87.974 136.717 88.2917 137.863 88.5938C139.071 88.9271 140.144 89.2969 141.082 89.7031C142.019 90.1094 142.811 90.5781 143.457 91.1094C144.103 91.6302 144.592 92.2396 144.926 92.9375C145.259 93.6354 145.426 94.4479 145.426 95.375C145.426 96.3021 145.228 97.1354 144.832 97.875C144.446 98.6042 143.9 99.224 143.191 99.7344C142.493 100.245 141.665 100.635 140.707 100.906C139.759 101.177 138.722 101.312 137.597 101.312C136.587 101.312 135.582 101.182 134.582 100.922C133.582 100.661 132.665 100.26 131.832 99.7188C131.009 99.1667 130.347 98.4583 129.847 97.5938C129.358 96.7292 129.113 95.6979 129.113 94.5H131.019C131.019 95.4583 131.212 96.2656 131.597 96.9219C131.983 97.5781 132.493 98.1094 133.129 98.5156C133.775 98.9219 134.483 99.2188 135.254 99.4062C136.035 99.5833 136.816 99.6719 137.597 99.6719C138.795 99.6719 139.832 99.4948 140.707 99.1406C141.592 98.7865 142.275 98.2917 142.754 97.6562C143.243 97.0104 143.488 96.2604 143.488 95.4062ZM158.006 78.25V101H156.084V78.25H158.006ZM176.492 101H171.336L171.367 99.3594H176.492C178.127 99.3594 179.534 98.9948 180.711 98.2656C181.898 97.526 182.815 96.5052 183.461 95.2031C184.106 93.901 184.429 92.3906 184.429 90.6719V88.5469C184.429 87.2344 184.242 86.0469 183.867 84.9844C183.502 83.9219 182.976 83.0156 182.289 82.2656C181.601 81.5052 180.778 80.9219 179.82 80.5156C178.872 80.1094 177.81 79.9062 176.632 79.9062H171.242V78.25H176.632C178.049 78.25 179.346 78.4948 180.523 78.9844C181.711 79.4635 182.737 80.1615 183.601 81.0781C184.476 81.9844 185.148 83.0729 185.617 84.3438C186.096 85.6146 186.336 87.0312 186.336 88.5938V90.6719C186.336 92.2344 186.096 93.651 185.617 94.9219C185.148 96.1927 184.476 97.2812 183.601 98.1875C182.726 99.0938 181.69 99.7917 180.492 100.281C179.294 100.76 177.961 101 176.492 101ZM172.195 78.25V101H170.273V78.25H172.195ZM211.463 99.3594V101H198.666V99.3594H211.463ZM199.244 78.25V101H197.322V78.25H199.244ZM209.869 88.4531V90.0938H198.666V88.4531H209.869ZM211.384 78.25V79.9062H198.666V78.25H211.384ZM238.558 78.25V101H236.621L223.542 81.5625V101H221.621V78.25H223.542L236.652 97.6875V78.25H238.558ZM257.607 78.25V101H255.701V78.25H257.607ZM265.404 78.25V79.9062H247.919V78.25H265.404ZM277.531 78.25V101H275.609V78.25H277.531ZM297.548 79.6094L289.673 101H287.673L296.267 78.25H297.658L297.548 79.6094ZM304.704 101L296.814 79.6094L296.704 78.25H298.095L306.704 101H304.704ZM303.298 92.9688V94.625H291.22V92.9688H303.298ZM329.316 99.3594V101H317.519V99.3594H329.316ZM318.081 78.25V101H316.159V78.25H318.081ZM356.21 88.7344L359.866 85.9844C360.533 85.4948 361.08 84.9688 361.507 84.4062C361.944 83.8333 362.163 83.1615 362.163 82.3906C362.163 81.651 361.897 80.9896 361.366 80.4062C360.835 79.8229 360.069 79.5312 359.069 79.5312C358.34 79.5312 357.726 79.6927 357.226 80.0156C356.726 80.3281 356.351 80.7552 356.101 81.2969C355.851 81.8281 355.726 82.4115 355.726 83.0469C355.726 83.5469 355.825 84.0677 356.022 84.6094C356.231 85.1406 356.522 85.6979 356.897 86.2812C357.283 86.8542 357.746 87.4583 358.288 88.0938L369.351 101H367.101L357.679 90.0469C356.908 89.151 356.231 88.3229 355.647 87.5625C355.075 86.8021 354.632 86.0625 354.319 85.3438C354.007 84.625 353.851 83.8802 353.851 83.1094C353.851 82.0365 354.064 81.1146 354.491 80.3438C354.918 79.5729 355.522 78.9792 356.304 78.5625C357.085 78.1354 358.007 77.9219 359.069 77.9219C360.09 77.9219 360.96 78.1302 361.679 78.5469C362.408 78.9531 362.965 79.4948 363.351 80.1719C363.736 80.8385 363.929 81.5781 363.929 82.3906C363.929 83.0677 363.778 83.6979 363.476 84.2812C363.184 84.8646 362.804 85.3958 362.335 85.875C361.877 86.3438 361.392 86.776 360.882 87.1719L356.726 90.375C355.83 91.0938 355.163 91.7552 354.726 92.3594C354.299 92.9635 354.017 93.5 353.882 93.9688C353.746 94.4375 353.679 94.8438 353.679 95.1875C353.679 95.9896 353.866 96.7344 354.241 97.4219C354.616 98.1094 355.189 98.6615 355.96 99.0781C356.731 99.4948 357.7 99.7031 358.866 99.7031C359.845 99.7031 360.793 99.4948 361.71 99.0781C362.627 98.651 363.444 98.0469 364.163 97.2656C364.892 96.474 365.465 95.5365 365.882 94.4531C366.309 93.3594 366.522 92.1458 366.522 90.8125H368.241C368.241 91.8021 368.142 92.7292 367.944 93.5938C367.757 94.4583 367.476 95.2552 367.101 95.9844C366.726 96.7135 366.262 97.3854 365.71 98C365.627 98.1042 365.569 98.1875 365.538 98.25C365.517 98.3125 365.465 98.3854 365.382 98.4688C364.549 99.3438 363.569 100.036 362.444 100.547C361.319 101.057 360.127 101.312 358.866 101.312C357.418 101.312 356.163 101.057 355.101 100.547C354.049 100.036 353.236 99.3229 352.663 98.4062C352.101 97.4792 351.819 96.4062 351.819 95.1875C351.819 94.2812 352.012 93.4583 352.397 92.7188C352.783 91.9792 353.309 91.2865 353.976 90.6406C354.642 89.9948 355.387 89.3594 356.21 88.7344ZM406.839 93.9062H408.761C408.604 95.4375 408.182 96.7604 407.495 97.875C406.807 98.9792 405.87 99.8281 404.682 100.422C403.495 101.016 402.063 101.312 400.386 101.312C399.094 101.312 397.922 101.068 396.87 100.578C395.828 100.089 394.932 99.3958 394.182 98.5C393.432 97.5938 392.854 96.5104 392.448 95.25C392.042 93.9896 391.839 92.5885 391.839 91.0469V88.2031C391.839 86.6615 392.042 85.2656 392.448 84.0156C392.854 82.7552 393.438 81.6719 394.198 80.7656C394.959 79.8594 395.87 79.1615 396.932 78.6719C397.995 78.1823 399.193 77.9375 400.526 77.9375C402.141 77.9375 403.537 78.2344 404.714 78.8281C405.891 79.4115 406.818 80.2552 407.495 81.3594C408.182 82.4635 408.604 83.7969 408.761 85.3594H406.839C406.693 84.1302 406.37 83.0885 405.87 82.2344C405.37 81.3802 404.677 80.7292 403.792 80.2812C402.917 79.8229 401.828 79.5938 400.526 79.5938C399.464 79.5938 398.516 79.7969 397.682 80.2031C396.849 80.6094 396.141 81.1927 395.557 81.9531C394.974 82.7031 394.526 83.6042 394.214 84.6562C393.912 85.7083 393.761 86.8802 393.761 88.1719V91.0469C393.761 92.2969 393.906 93.4479 394.198 94.5C394.49 95.5521 394.917 96.4635 395.479 97.2344C396.052 98.0052 396.75 98.6042 397.573 99.0312C398.396 99.4583 399.334 99.6719 400.386 99.6719C401.729 99.6719 402.849 99.4583 403.745 99.0312C404.651 98.5938 405.354 97.9479 405.854 97.0938C406.354 96.2396 406.682 95.1771 406.839 93.9062ZM436.325 88.4062V90.8438C436.325 92.4375 436.117 93.8802 435.7 95.1719C435.294 96.4531 434.7 97.5521 433.919 98.4688C433.148 99.3854 432.221 100.089 431.138 100.578C430.054 101.068 428.835 101.312 427.481 101.312C426.158 101.312 424.95 101.068 423.856 100.578C422.773 100.089 421.841 99.3854 421.059 98.4688C420.278 97.5521 419.674 96.4531 419.247 95.1719C418.82 93.8802 418.606 92.4375 418.606 90.8438V88.4062C418.606 86.8125 418.815 85.375 419.231 84.0938C419.658 82.8021 420.263 81.6979 421.044 80.7812C421.825 79.8646 422.757 79.1615 423.841 78.6719C424.924 78.1823 426.127 77.9375 427.45 77.9375C428.804 77.9375 430.023 78.1823 431.106 78.6719C432.19 79.1615 433.122 79.8646 433.903 80.7812C434.684 81.6979 435.283 82.8021 435.7 84.0938C436.117 85.375 436.325 86.8125 436.325 88.4062ZM434.419 90.8438V88.375C434.419 87.0312 434.263 85.8229 433.95 84.75C433.648 83.6771 433.195 82.7604 432.591 82C431.997 81.2396 431.268 80.6562 430.403 80.25C429.539 79.8438 428.554 79.6406 427.45 79.6406C426.377 79.6406 425.414 79.8438 424.559 80.25C423.705 80.6562 422.976 81.2396 422.372 82C421.778 82.7604 421.32 83.6771 420.997 84.75C420.684 85.8229 420.528 87.0312 420.528 88.375V90.8438C420.528 92.1979 420.684 93.4167 420.997 94.5C421.32 95.5729 421.783 96.4948 422.388 97.2656C422.992 98.026 423.721 98.6094 424.575 99.0156C425.44 99.4219 426.408 99.625 427.481 99.625C428.596 99.625 429.58 99.4219 430.434 99.0156C431.289 98.6094 432.013 98.026 432.606 97.2656C433.2 96.4948 433.648 95.5729 433.95 94.5C434.263 93.4167 434.419 92.1979 434.419 90.8438ZM447.858 78.25H449.796L458.202 98.2812L466.624 78.25H468.546L458.936 101H457.467L447.858 78.25ZM447.264 78.25H448.967L449.171 91.0625V101H447.264V78.25ZM467.467 78.25H469.171V101H467.249V91.0625L467.467 78.25ZM481.626 78.25H483.563L491.969 98.2812L500.391 78.25H502.313L492.704 101H491.235L481.626 78.25ZM481.032 78.25H482.735L482.938 91.0625V101H481.032V78.25ZM501.235 78.25H502.938V101H501.016V91.0625L501.235 78.25ZM528.94 99.3594V101H516.143V99.3594H528.94ZM516.721 78.25V101H514.799V78.25H516.721ZM527.346 88.4531V90.0938H516.143V88.4531H527.346ZM528.862 78.25V79.9062H516.143V78.25H528.862ZM539.051 78.25H546.442C548.015 78.25 549.379 78.5052 550.536 79.0156C551.692 79.526 552.582 80.2812 553.207 81.2812C553.843 82.2708 554.161 83.4896 554.161 84.9375C554.161 86.0104 553.931 86.9844 553.473 87.8594C553.025 88.7344 552.405 89.4688 551.614 90.0625C550.822 90.6458 549.905 91.0469 548.864 91.2656L548.192 91.5156H540.301L540.27 89.875H546.879C548.067 89.875 549.056 89.6458 549.848 89.1875C550.64 88.7292 551.234 88.125 551.629 87.375C552.036 86.6146 552.239 85.8021 552.239 84.9375C552.239 83.9062 552.015 83.0156 551.567 82.2656C551.129 81.5052 550.478 80.9219 549.614 80.5156C548.749 80.1094 547.692 79.9062 546.442 79.9062H540.973V101H539.051V78.25ZM553.098 101L547.207 90.8281L549.27 90.8125L555.145 100.797V101H553.098ZM579.694 93.9062H581.616C581.459 95.4375 581.038 96.7604 580.35 97.875C579.663 98.9792 578.725 99.8281 577.538 100.422C576.35 101.016 574.918 101.312 573.241 101.312C571.949 101.312 570.777 101.068 569.725 100.578C568.683 100.089 567.788 99.3958 567.038 98.5C566.288 97.5938 565.709 96.5104 565.303 95.25C564.897 93.9896 564.694 92.5885 564.694 91.0469V88.2031C564.694 86.6615 564.897 85.2656 565.303 84.0156C565.709 82.7552 566.293 81.6719 567.053 80.7656C567.814 79.8594 568.725 79.1615 569.788 78.6719C570.85 78.1823 572.048 77.9375 573.381 77.9375C574.996 77.9375 576.392 78.2344 577.569 78.8281C578.746 79.4115 579.673 80.2552 580.35 81.3594C581.038 82.4635 581.459 83.7969 581.616 85.3594H579.694C579.548 84.1302 579.225 83.0885 578.725 82.2344C578.225 81.3802 577.532 80.7292 576.647 80.2812C575.772 79.8229 574.683 79.5938 573.381 79.5938C572.319 79.5938 571.371 79.7969 570.538 80.2031C569.704 80.6094 568.996 81.1927 568.413 81.9531C567.829 82.7031 567.381 83.6042 567.069 84.6562C566.767 85.7083 566.616 86.8802 566.616 88.1719V91.0469C566.616 92.2969 566.761 93.4479 567.053 94.5C567.345 95.5521 567.772 96.4635 568.334 97.2344C568.907 98.0052 569.605 98.6042 570.428 99.0312C571.251 99.4583 572.189 99.6719 573.241 99.6719C574.584 99.6719 575.704 99.4583 576.6 99.0312C577.506 98.5938 578.209 97.9479 578.709 97.0938C579.209 96.2396 579.538 95.1771 579.694 93.9062ZM594.727 78.25V101H592.805V78.25H594.727ZM614.744 79.6094L606.869 101H604.869L613.463 78.25H614.854L614.744 79.6094ZM621.901 101L614.01 79.6094L613.901 78.25H615.291L623.901 101H621.901ZM620.494 92.9688V94.625H608.416V92.9688H620.494ZM646.512 99.3594V101H634.715V99.3594H646.512ZM635.278 78.25V101H633.356V78.25H635.278Z" fill="#244030"/>
<path d="M84.936 62C82.8027 62 81.3733 61.8933 80.648 61.68C79.9227 61.424 79.56 61.0187 79.56 60.464V20.656C79.56 19.7173 80.7973 18.8 83.272 17.904C85.7467 16.9653 88.52 16.496 91.592 16.496C94.3227 16.496 96.1147 17.072 96.968 18.224C97.2667 18.6507 97.416 19.0773 97.416 19.504V47.856C102.621 47.5147 106.547 47.344 109.192 47.344C110.088 47.344 110.536 48.7733 110.536 51.632C110.536 54.448 110.344 56.88 109.96 58.928C109.576 60.976 109.064 62 108.424 62H84.936ZM132.037 58.736C131.951 59.9733 131.29 60.8267 130.053 61.296C128.858 61.7653 126.682 62 123.525 62C120.367 62 117.722 61.7227 115.589 61.168C113.498 60.5707 112.453 59.824 112.453 58.928C112.453 57.904 114.351 51.376 118.149 39.344C121.946 27.2693 124.122 20.3147 124.677 18.48C124.89 17.9253 126.597 17.4773 129.797 17.136C133.039 16.752 136.495 16.56 140.165 16.56C143.877 16.56 145.925 17.2 146.309 18.48C154.373 45.2747 158.405 58.8853 158.405 59.312C158.405 59.7387 158.149 60.1653 157.637 60.592C156.442 61.5307 154.074 62 150.533 62C142.981 62 139.119 61.104 138.949 59.312L138.501 55.152H132.357L132.037 58.736ZM137.157 42.992L136.197 31.472H134.789L133.701 42.992H137.157ZM179.479 60.144C179.479 60.6987 178.156 61.1467 175.51 61.488C172.908 61.8293 170.305 62 167.703 62C165.1 62 163.436 61.8507 162.711 61.552C161.985 61.2533 161.623 60.784 161.623 60.144V20.848C161.623 19.7813 162.839 18.8 165.271 17.904C167.745 17.008 170.54 16.56 173.655 16.56C174.764 16.56 175.596 16.6027 176.151 16.688C177.601 16.9013 178.625 17.8187 179.223 19.44L185.367 35.952H185.623V20.848C185.623 19.7813 186.839 18.8 189.271 17.904C191.703 17.008 194.476 16.56 197.591 16.56C200.279 16.56 201.985 17.072 202.711 18.096C203.223 18.8213 203.479 19.4827 203.479 20.08V60.144C203.479 60.6987 202.156 61.1467 199.511 61.488C196.908 61.8293 194.028 62 190.871 62C187.756 62 186.049 61.5947 185.751 60.784L179.799 45.04H179.479V60.144ZM229.039 62H213.935C211.844 62 210.436 61.8507 209.711 61.552C208.985 61.2533 208.623 60.7627 208.623 60.08V19.696C208.623 18.5867 209.092 17.7973 210.031 17.328C210.969 16.816 212.591 16.56 214.895 16.56H229.295C237.487 16.56 243.14 18.1813 246.255 21.424C249.369 24.624 250.927 30.4693 250.927 38.96C250.927 47.4507 249.305 53.424 246.062 56.88C242.82 60.2933 237.145 62 229.039 62ZM228.527 26.096C227.503 26.096 226.82 26.1813 226.479 26.352V52.208L228.911 52.464C230.191 52.464 231.151 51.44 231.791 49.392C232.473 47.344 232.815 43.8027 232.815 38.768C232.815 33.7333 232.473 30.3627 231.791 28.656C231.108 26.9493 230.02 26.096 228.527 26.096ZM288.011 59.312C286.731 60.2507 284.939 61.04 282.635 61.68C280.374 62.2773 277.43 62.576 273.803 62.576C270.219 62.576 266.806 62.2773 263.563 61.68C260.32 61.0827 257.995 60.4213 256.587 59.696C255.179 58.9707 254.475 58.2667 254.475 57.584C254.475 55.1947 254.816 52.72 255.499 50.16C256.182 47.5573 256.992 46.256 257.931 46.256C258.102 46.256 259.872 46.832 263.243 47.984C266.614 49.136 269.152 49.712 270.859 49.712C272.566 49.712 273.675 49.5413 274.187 49.2C274.699 48.816 274.955 48.2827 274.955 47.6C274.955 46.9173 274.486 46.32 273.547 45.808C272.608 45.2533 271.435 44.784 270.027 44.4C268.619 43.9733 267.083 43.376 265.419 42.608C263.798 41.84 262.283 40.9867 260.875 40.048C259.467 39.1093 258.294 37.7867 257.355 36.08C256.416 34.3307 255.947 32.3467 255.947 30.128C255.947 20.656 261.6 15.92 272.907 15.92C277.131 15.92 280.779 16.1973 283.851 16.752C286.923 17.264 289.078 17.8613 290.315 18.544C291.595 19.184 292.235 19.824 292.235 20.464C292.235 22.6827 291.702 25.072 290.635 27.632C289.611 30.192 288.608 31.472 287.627 31.472C287.456 31.472 286.902 31.28 285.963 30.896C283.147 29.6587 280.8 29.04 278.923 29.04C277.088 29.04 275.83 29.2107 275.147 29.552C274.507 29.8933 274.187 30.4267 274.187 31.152C274.187 31.8347 274.656 32.4107 275.595 32.88C276.534 33.3067 277.686 33.712 279.051 34.096C280.459 34.4373 281.974 34.992 283.595 35.76C285.259 36.4853 286.795 37.36 288.203 38.384C289.611 39.3653 290.784 40.7733 291.723 42.608C292.662 44.4427 293.131 46.576 293.131 49.008C293.131 51.568 292.47 53.8933 291.147 55.984C290.336 57.264 289.291 58.3733 288.011 59.312ZM329.374 61.552C327.667 61.936 325.918 62.192 324.126 62.32C322.377 62.4907 320.649 62.576 318.942 62.576C317.278 62.576 315.977 62.5333 315.038 62.448C314.142 62.3627 312.947 62.1493 311.454 61.808C309.961 61.4667 308.595 60.9973 307.358 60.4C306.121 59.8027 304.798 58.928 303.39 57.776C302.025 56.624 300.873 55.2587 299.934 53.68C297.758 50.0107 296.67 45.2747 296.67 39.472C296.67 35.5893 297.267 32.1547 298.462 29.168C299.699 26.1813 301.171 23.8773 302.878 22.256C304.627 20.6347 306.611 19.3333 308.83 18.352C312.414 16.7307 316.019 15.92 319.646 15.92C324.851 15.92 328.585 16.3467 330.846 17.2C331.87 17.584 332.787 18.1813 333.598 18.992C334.409 19.8027 334.814 20.976 334.814 22.512C334.814 24.048 334.43 25.9893 333.662 28.336C332.937 30.6827 331.87 31.856 330.462 31.856C330.035 31.856 328.457 31.5147 325.726 30.832C322.995 30.1493 321.139 29.808 320.158 29.808C318.665 29.808 317.385 30.64 316.318 32.304C315.294 33.968 314.782 36.336 314.782 39.408C314.782 42.48 315.23 44.8693 316.126 46.576C317.065 48.2827 318.281 49.136 319.774 49.136C320.841 49.136 322.761 48.7093 325.534 47.856C328.35 46.96 329.993 46.512 330.462 46.512C331.785 46.512 332.809 47.728 333.534 50.16C334.302 52.592 334.686 54.5547 334.686 56.048C334.686 57.5413 334.217 58.736 333.278 59.632C332.382 60.4853 331.081 61.1253 329.374 61.552ZM356.974 58.736C356.889 59.9733 356.227 60.8267 354.99 61.296C353.795 61.7653 351.619 62 348.462 62C345.305 62 342.659 61.7227 340.526 61.168C338.435 60.5707 337.39 59.824 337.39 58.928C337.39 57.904 339.289 51.376 343.086 39.344C346.883 27.2693 349.059 20.3147 349.614 18.48C349.827 17.9253 351.534 17.4773 354.734 17.136C357.977 16.752 361.433 16.56 365.102 16.56C368.814 16.56 370.862 17.2 371.246 18.48C379.31 45.2747 383.342 58.8853 383.342 59.312C383.342 59.7387 383.086 60.1653 382.574 60.592C381.379 61.5307 379.011 62 375.47 62C367.918 62 364.057 61.104 363.886 59.312L363.438 55.152H357.294L356.974 58.736ZM362.094 42.992L361.134 31.472H359.726L358.638 42.992H362.094ZM404.352 60.144C404.352 60.6987 403.051 61.1467 400.448 61.488C397.845 61.8293 395.243 62 392.64 62C390.037 62 388.373 61.8507 387.648 61.552C386.923 61.2533 386.56 60.784 386.56 60.144V18.992C386.56 16.944 392.704 15.92 404.992 15.92C412.416 15.92 417.323 16.432 419.712 17.456C422.613 18.6507 424.576 20.272 425.6 22.32C426.965 24.9653 427.648 28.3573 427.648 32.496C427.648 38.1707 426.667 42.288 424.704 44.848C423.296 46.7253 421.888 47.9413 420.48 48.496C419.072 49.0507 417.899 49.456 416.96 49.712C416.064 49.9253 414.933 50.096 413.568 50.224C411.691 50.3947 409.131 50.48 405.888 50.48L404.352 50.416V60.144ZM404.416 39.792H405.952C406.763 39.792 407.403 39.6853 407.872 39.472C408.341 39.216 408.747 38.576 409.088 37.552C409.472 36.4853 409.664 35.0133 409.664 33.136C409.664 31.216 409.451 29.7653 409.024 28.784C408.64 27.76 408.235 27.1627 407.808 26.992C407.424 26.7787 406.955 26.672 406.4 26.672H404.416V39.792ZM464.258 62H437.122C435.031 62 433.623 61.8507 432.898 61.552C432.173 61.2533 431.81 60.784 431.81 60.144V19.632C431.81 18.5227 432.301 17.7333 433.282 17.264C434.306 16.7947 436.119 16.56 438.722 16.56H464.45C465.346 16.56 465.794 18.0533 465.794 21.04C465.794 23.984 465.602 26.2453 465.218 27.824C464.834 29.36 464.322 30.128 463.682 30.128C460.909 30.128 456.237 29.8507 449.666 29.296V33.584C455.981 33.328 460.098 33.2 462.018 33.2C463.17 33.2 463.746 34.544 463.746 37.232C463.746 39.92 463.511 41.968 463.042 43.376C462.615 44.7413 462.018 45.424 461.25 45.424L449.666 45.168V49.264C457.09 48.7093 462.21 48.432 465.026 48.432C465.922 48.432 466.37 49.9253 466.37 52.912C466.37 55.8987 466.178 58.16 465.794 59.696C465.41 61.232 464.898 62 464.258 62Z" fill="#244030"/>
<path d="M484.76 62.512C483.31 62.512 481.966 62.3627 480.729 62.064C479.491 61.7653 478.19 61.1467 476.825 60.208C475.502 59.2267 474.371 57.9467 473.433 56.368C471.299 52.784 470.233 47.3867 470.233 40.176C470.233 36.208 470.766 32.7093 471.833 29.68C472.899 26.6507 474.243 24.304 475.865 22.64C477.486 20.9333 479.427 19.5467 481.689 18.48C483.95 17.4133 486.062 16.7307 488.025 16.432C489.987 16.0907 492.078 15.92 494.297 15.92C499.417 15.92 503.022 16.368 505.113 17.264C507.203 18.1173 508.249 19.7813 508.249 22.256C508.249 24.2187 507.886 26.352 507.161 28.656C506.435 30.9173 505.369 32.048 503.961 32.048C503.619 32.048 502.169 31.728 499.609 31.088C497.049 30.4053 495.129 30.064 493.849 30.064C490.179 30.064 488.345 33.1573 488.345 39.344C488.345 42.4587 488.771 44.784 489.625 46.32C490.478 47.8133 491.545 48.6453 492.825 48.816V43.056C492.825 41.9893 493.913 41.008 496.089 40.112C498.265 39.216 500.355 38.768 502.361 38.768C504.366 38.768 505.817 38.896 506.713 39.152C507.651 39.408 508.291 39.7707 508.633 40.24C509.23 41.008 509.529 41.6907 509.529 42.288V60.016C509.529 60.5707 508.398 61.0187 506.137 61.36C503.918 61.7013 501.593 61.872 499.161 61.872C496.771 61.872 495.257 61.7653 494.617 61.552C493.977 61.296 493.614 60.6347 493.529 59.568L493.081 55.792H492.569C492.27 57.6267 491.502 59.2053 490.265 60.528C489.07 61.8507 487.235 62.512 484.76 62.512ZM546.446 62H519.31C517.219 62 515.811 61.8507 515.086 61.552C514.36 61.2533 513.998 60.784 513.998 60.144V19.632C513.998 18.5227 514.488 17.7333 515.47 17.264C516.494 16.7947 518.307 16.56 520.91 16.56H546.638C547.534 16.56 547.982 18.0533 547.982 21.04C547.982 23.984 547.79 26.2453 547.406 27.824C547.022 29.36 546.51 30.128 545.87 30.128C543.096 30.128 538.424 29.8507 531.854 29.296V33.584C538.168 33.328 542.286 33.2 544.206 33.2C545.358 33.2 545.934 34.544 545.934 37.232C545.934 39.92 545.699 41.968 545.229 43.376C544.803 44.7413 544.206 45.424 543.438 45.424L531.854 45.168V49.264C539.278 48.7093 544.398 48.432 547.214 48.432C548.11 48.432 548.558 49.9253 548.558 52.912C548.558 55.8987 548.366 58.16 547.982 59.696C547.598 61.232 547.086 62 546.446 62ZM570.916 60.144C570.916 60.6987 569.593 61.1467 566.948 61.488C564.345 61.8293 561.743 62 559.14 62C556.537 62 554.873 61.8507 554.148 61.552C553.423 61.2533 553.06 60.784 553.06 60.144V20.848C553.06 19.7813 554.276 18.8 556.708 17.904C559.183 17.008 561.977 16.56 565.092 16.56C566.201 16.56 567.033 16.6027 567.588 16.688C569.039 16.9013 570.063 17.8187 570.66 19.44L576.804 35.952H577.06V20.848C577.06 19.7813 578.276 18.8 580.708 17.904C583.14 17.008 585.913 16.56 589.028 16.56C591.716 16.56 593.423 17.072 594.148 18.096C594.66 18.8213 594.916 19.4827 594.916 20.08V60.144C594.916 60.6987 593.593 61.1467 590.948 61.488C588.345 61.8293 585.465 62 582.308 62C579.193 62 577.487 61.5947 577.188 60.784L571.236 45.04H570.916V60.144ZM617.916 60.464C617.916 60.9333 616.615 61.3173 614.012 61.616C611.409 61.872 608.785 62 606.14 62C603.537 62 601.873 61.8933 601.148 61.68C600.423 61.424 600.06 61.0187 600.06 60.464V20.656C600.06 19.7173 601.297 18.8 603.772 17.904C606.247 16.9653 609.02 16.496 612.092 16.496C614.823 16.496 616.615 17.072 617.468 18.224C617.767 18.6507 617.916 19.0773 617.916 19.504V60.464ZM655.508 62H628.372C626.281 62 624.873 61.8507 624.148 61.552C623.423 61.2533 623.06 60.784 623.06 60.144V19.632C623.06 18.5227 623.551 17.7333 624.532 17.264C625.556 16.7947 627.369 16.56 629.972 16.56H655.7C656.596 16.56 657.044 18.0533 657.044 21.04C657.044 23.984 656.852 26.2453 656.468 27.824C656.084 29.36 655.572 30.128 654.932 30.128C652.159 30.128 647.487 29.8507 640.916 29.296V33.584C647.231 33.328 651.348 33.2 653.268 33.2C654.42 33.2 654.996 34.544 654.996 37.232C654.996 39.92 654.761 41.968 654.292 43.376C653.865 44.7413 653.268 45.424 652.5 45.424L640.916 45.168V49.264C648.34 48.7093 653.46 48.432 656.276 48.432C657.172 48.432 657.62 49.9253 657.62 52.912C657.62 55.8987 657.428 58.16 657.044 59.696C656.66 61.232 656.148 62 655.508 62Z" fill="#739536"/>
<path d="M13.1849 23.5602C13.227 24.5651 13.6434 26.1035 13.6434 26.1035H11.1982C11.1982 26.1035 11.2361 26.8721 11.3511 27.1743C11.4661 27.4765 11.8957 28.219 12.5736 28.9145C13.2336 29.5915 13.6259 30.0368 14.5603 30.3869C14.9598 30.5365 15.6301 30.6546 15.6301 30.6546C15.6301 30.6546 16.1158 31.6699 16.547 32.2609C17.0944 33.0109 17.3883 33.345 18.0752 34.001C18.8169 34.7092 19.3344 35.1675 20.2147 35.7411C21.1358 36.3413 21.7137 36.6553 22.8127 36.9458C24.2422 37.3238 25.1732 37.3539 26.6332 37.0797C27.9905 36.8248 28.7105 36.4449 29.8425 35.7411C30.9167 35.0733 31.41 34.5429 32.2254 33.6663L32.2876 33.5994C33.2709 32.5428 34.4271 30.6546 34.4271 30.6546C34.4271 30.6546 35.2224 30.6008 35.6497 30.3869C36.7195 29.8515 38.0949 28.7806 38.7062 28.1113C39.09 27.6911 39.357 27.4356 39.4703 26.9066C39.5363 26.5984 39.4703 26.2374 39.3174 26.1035C39.1646 25.9696 36.5666 26.1035 36.5666 26.1035C36.5666 26.1035 37.0452 24.3192 37.0251 23.1587C37.0105 22.3159 37.045 21.8462 36.8723 21.017C36.7294 20.3308 36.5302 19.9332 36.261 19.2768C35.9903 18.6168 35.7504 18.2749 35.3441 17.6706C34.823 16.8956 34.4986 16.4683 33.8159 15.7966C33.1698 15.161 32.7786 14.8112 31.982 14.3242C31.1066 13.7889 30.5162 13.6255 29.5368 13.2533C28.7743 12.9635 27.3974 12.584 27.3974 12.584C27.3974 12.584 27.613 11.5257 27.2445 10.9777C26.9875 10.5956 26.7162 10.459 26.3276 10.1746C26.0986 10.007 25.7163 9.77304 25.7163 9.77304C25.7163 9.77304 26.0569 9.02711 26.4804 8.70219C27.0483 8.26655 27.5622 8.22444 28.3143 8.16677C29.2237 8.09702 29.7848 8.22001 30.6066 8.56834C31.3701 8.89198 31.7377 9.20739 32.2876 9.77304C32.9454 10.4496 33.2409 11.3793 33.5102 11.7809C34.0133 12.5311 34.2243 13.0057 34.8856 13.6549C35.5063 14.2641 35.9304 14.5587 36.7195 14.9934C37.6017 15.4795 38.1364 15.6469 39.1646 15.7966C40.1084 15.9339 41.1513 15.8887 41.6098 15.7966C42.42 15.6337 42.806 15.5944 43.4436 15.1273C44.0405 14.69 44.4201 14.3015 44.6662 13.6549C44.987 12.8118 44.8525 12.2529 44.6662 11.3793C44.5276 10.7293 44.0549 9.77304 44.0549 9.77304C44.0549 9.77304 43.8281 11.5005 43.7493 11.9147C43.5965 12.7179 43.518 12.9616 42.9852 13.3872C42.5102 13.7665 42.0947 13.8526 41.4569 13.9226C40.7365 14.0017 40.3034 13.877 39.6231 13.6549C38.9709 13.4419 38.6292 13.2424 38.0949 12.8517C37.4437 12.3756 37.2055 11.9882 36.7195 11.3793C36.0917 10.5928 35.9711 10.0246 35.3441 9.23762C34.6661 8.38672 34.2857 7.87435 33.3574 7.22978L33.317 7.20172C32.5867 6.6945 32.1295 6.37699 31.2179 6.15893C30.2392 5.92482 29.6114 5.97046 28.6199 6.15893C27.7316 6.32779 27.2184 6.49713 26.4804 6.96207C25.6554 7.48188 25.1832 7.87791 24.7994 8.70219C24.5916 9.14846 24.4937 9.9069 24.4937 9.9069C24.4937 9.9069 23.2701 10.5156 22.9655 11.2455C22.7401 11.7855 22.8127 12.7179 22.8127 12.7179C22.8127 12.7179 21.5792 12.8932 20.826 13.1194C19.4606 13.5297 18.7528 13.8119 17.6168 14.5919C16.4538 15.3903 15.8176 16.0463 15.0188 17.1351C14.0899 18.4014 13.8398 19.2756 13.4906 20.7492C13.2347 21.829 13.1388 22.4582 13.1849 23.5602Z" fill="#244030"/>
<path d="M12.7265 51.1346C12.4601 51.9792 11.9624 53.2763 11.9624 53.2763C11.9624 53.2763 13.0396 52.3935 13.7963 51.8039C14.5901 51.1852 15.0797 50.7489 15.9358 50.1976C16.2414 50.0008 17.0055 49.3753 17.9225 48.859C18.8394 48.3427 19.145 48.1897 20.062 47.7882C20.9789 47.3866 22.5071 47.1189 22.5071 47.1189C22.5071 47.1189 21.0396 47.1923 20.6732 47.2528C19.8335 47.3913 19.3337 47.5251 18.5337 47.7882C17.5564 48.1096 17.0864 48.4559 16.2414 48.9929C14.9771 49.7963 13.3378 51.4023 13.3378 51.4023C13.3378 51.4023 13.9912 49.4113 13.6434 48.1897C13.5201 47.7564 13.185 47.1189 13.185 47.1189C13.185 47.1189 13.3405 48.5973 13.185 49.5283C13.0781 50.1681 12.9231 50.5113 12.7265 51.1346Z" fill="#244030"/>
<path d="M39.1646 54.6148C39.3778 55.3186 39.7759 56.4888 39.7759 56.4888L38.7062 55.5518C38.4005 55.2841 37.3244 54.4754 36.4138 53.8117C35.5326 53.1693 35.0825 52.8868 34.1215 52.3393C33.271 51.8547 31.8292 51.2684 31.8292 51.2684L29.384 50.3314C29.384 50.3314 31.5977 50.5372 32.8989 51.0007C33.7152 51.2915 34.138 51.5291 34.8856 51.9377C35.5037 52.2755 35.8422 52.4792 36.4138 52.8747C36.9117 53.2191 37.1878 53.4188 37.6364 53.8117C38.085 54.2046 38.7062 54.8825 38.7062 54.8825C38.7062 54.8825 38.368 54.2457 38.2477 53.8117C38.1342 53.4021 38.1003 52.9335 38.0949 52.7408C38.0884 52.5096 38.06 51.9012 38.2477 51.4023C38.373 51.0692 38.7062 50.5991 38.7062 50.5991C38.7062 50.5991 38.7291 52.073 38.859 53.0085C38.9466 53.6398 38.9785 54.0001 39.1646 54.6148Z" fill="#244030"/>
<path d="M2.793 40.5599C2.28756 41.1356 2.05024 41.4988 1.72325 42.1662C1.49995 42.6219 1.40559 42.8906 1.26478 43.3709C0.834083 44.8401 0.971984 45.6465 0.806334 47.2527C0.640685 48.859 0.34787 50.733 0.19503 51.4023C0.0421899 52.0716 -0.154265 52.8747 0.195042 55.0164C0.488025 56.8127 0.921445 57.778 1.26478 59.5675C1.39487 60.2455 1.21184 60.696 1.57043 61.3076C1.91742 61.8995 2.29831 62.1645 2.94582 62.5123C3.63777 62.8841 4.13999 63.0278 4.93252 63.1816C6.04572 63.3976 7.83612 63.3155 7.83612 63.3155C7.83612 63.3155 11.0406 61.0704 13.0321 59.5675C14.793 58.2385 15.5983 57.3018 17.4639 56.0872C18.8856 55.1617 19.6609 54.5662 21.2844 53.9455C22.3743 53.5289 24.188 53.1424 24.188 53.1424C24.188 53.1424 20.485 54.9865 18.3808 56.4888C16.2874 57.9835 15.3407 59.0488 13.4905 60.7722C12.3327 61.8507 10.5869 63.5832 10.5869 63.5832C10.5869 63.5832 11.0481 67.9023 11.1982 70.6776C11.3564 73.6021 11.0428 75.2582 11.351 78.1735C11.5176 79.7489 11.589 80.6412 11.9623 82.1892C12.2825 83.517 12.4652 84.2725 13.0321 85.5356C13.7552 87.1469 14.2822 88.0383 15.4772 89.4174C16.5998 90.7129 17.4464 91.2867 18.8393 92.3622C20.4689 93.6206 21.4699 94.2433 23.2711 95.3071C25.6648 96.7208 27.2201 97.2099 29.6896 98.5196C32.4227 99.9691 34.1524 100.568 36.5666 102.401C38.1294 103.588 39.1367 104.212 40.2343 105.748C41.1577 107.04 41.54 107.874 41.9154 109.362C42.3173 110.955 42.2272 111.928 42.0796 113.522L42.0682 113.645C41.9162 115.291 41.1513 117.795 41.1513 117.795C41.1513 117.795 43.3455 115.506 44.2077 113.779C44.7826 112.628 44.9971 111.933 45.2774 110.701C45.6629 109.006 45.7381 108.006 45.5831 106.283C45.4589 104.904 45.2734 104.129 44.819 102.803C44.3344 101.39 43.924 100.628 43.1379 99.3228C42.273 97.8865 41.6589 97.1373 40.54 95.8425C39.4929 94.6309 38.7198 94.0845 37.6363 92.8977C36.1675 91.2888 35.3592 90.3659 34.1214 88.6143C32.9131 86.9043 32.2568 85.9184 31.3706 84.0632C30.6423 82.5382 30.3276 81.645 29.8424 80.0475C29.4813 78.8584 29.0783 76.9688 29.0783 76.9688C29.0783 76.9688 30.1501 79.9543 31.065 81.7876C31.9524 83.5656 32.4922 84.5574 33.663 86.2049C34.6345 87.572 35.0768 88.4459 36.4138 89.5513C37.1256 90.1398 38.4004 90.8898 38.4004 90.8898C38.4004 90.8898 36.9721 88.261 36.4138 86.4726C35.9815 85.088 35.8273 84.2854 35.6497 82.8585C35.3909 80.7798 35.5215 79.5922 35.6497 77.5042C35.7915 75.1927 35.9267 73.8898 36.4138 71.6145C36.8566 69.546 37.2946 68.421 37.942 66.3942C38.3948 64.9765 39.1646 62.78 39.1646 62.78C39.1646 62.78 36.3524 60.8855 35.0384 59.2998C34.5813 58.7482 33.9686 57.8274 33.9686 57.8274C33.9686 57.8274 36.6878 60.2196 38.7061 61.4415C40.1797 62.3337 41.4569 63.2954 42.6795 63.4493C43.9911 63.6145 44.8226 63.503 46.0415 63.0478C47.1395 62.6377 48.1279 62.1108 48.4867 61.4415C48.7454 60.9589 48.6864 60.6279 48.7923 60.1029C49.0539 58.8068 49.2014 58.0608 49.4036 56.7565C49.6638 55.0789 50.154 54.1618 50.0149 52.4731C49.945 51.6244 49.7932 51.1567 49.5564 50.3314C49.17 48.9843 48.5869 48.2223 48.3339 46.8512C48.1149 45.6643 48.4051 45.0925 48.1811 43.9063C47.9869 42.8787 47.7858 42.2991 47.2641 41.3631C46.573 40.1229 46.0268 39.4383 44.819 38.5521C44.2077 38.1036 43.309 37.607 42.221 37.2135C41.0838 36.8023 40.0815 36.6781 39.1646 36.6781C37.1779 36.6781 35.0384 37.0064 33.9686 37.2135C32.2876 37.5389 29.384 38.4182 27.7029 38.9536C26.5756 39.3127 25.831 39.3872 24.6465 39.2214C24.0312 39.1352 22.952 38.8397 22.3542 38.6859C20.9788 38.3322 19.6961 37.9189 17.4639 37.4812C15.9219 37.1789 14.2546 36.8698 13.4905 36.8119C12.1824 36.7129 11.0454 36.6781 10.1284 36.8119C9.2115 36.9458 8.60699 37.1447 7.68329 37.4812C6.2752 37.9943 4.32122 39.2214 4.32122 39.2214C4.32122 39.2214 3.30753 39.9739 2.793 40.5599Z" fill="#244030"/>
<path d="M17.1849 23.5602C17.227 24.5651 17.6434 26.1035 17.6434 26.1035H15.1982C15.1982 26.1035 15.2361 26.8721 15.3511 27.1743C15.4661 27.4765 15.8957 28.219 16.5736 28.9145C17.2336 29.5915 17.6259 30.0368 18.5603 30.3869C18.9598 30.5365 19.6301 30.6546 19.6301 30.6546C19.6301 30.6546 20.1158 31.6699 20.547 32.2609C21.0944 33.0109 21.3883 33.345 22.0752 34.001C22.8169 34.7092 23.3344 35.1675 24.2147 35.7411C25.1358 36.3413 25.7137 36.6553 26.8127 36.9458C28.2422 37.3238 29.1732 37.3539 30.6332 37.0797C31.9905 36.8248 32.7105 36.4449 33.8425 35.7411C34.9167 35.0733 35.41 34.5429 36.2254 33.6663L36.2876 33.5994C37.2709 32.5428 38.4271 30.6546 38.4271 30.6546C38.4271 30.6546 39.2224 30.6008 39.6497 30.3869C40.7195 29.8515 42.0949 28.7806 42.7062 28.1113C43.09 27.6911 43.357 27.4356 43.4703 26.9066C43.5363 26.5984 43.4703 26.2374 43.3174 26.1035C43.1646 25.9696 40.5666 26.1035 40.5666 26.1035C40.5666 26.1035 41.0452 24.3192 41.0251 23.1587C41.0105 22.3159 41.045 21.8462 40.8723 21.017C40.7294 20.3308 40.5302 19.9332 40.261 19.2768C39.9903 18.6168 39.7504 18.2749 39.3441 17.6706C38.823 16.8956 38.4986 16.4683 37.8159 15.7966C37.1698 15.161 36.7786 14.8112 35.982 14.3242C35.1066 13.7889 34.5162 13.6255 33.5368 13.2533C32.7743 12.9635 31.3974 12.584 31.3974 12.584C31.3974 12.584 31.613 11.5257 31.2445 10.9777C30.9875 10.5956 30.7162 10.459 30.3276 10.1746C30.0986 10.007 29.7163 9.77304 29.7163 9.77304C29.7163 9.77304 30.0569 9.02711 30.4804 8.70219C31.0483 8.26655 31.5622 8.22444 32.3143 8.16677C33.2237 8.09702 33.7848 8.22001 34.6066 8.56834C35.3701 8.89198 35.7377 9.20739 36.2876 9.77304C36.9454 10.4496 37.2409 11.3793 37.5102 11.7809C38.0133 12.5311 38.2243 13.0057 38.8856 13.6549C39.5063 14.2641 39.9304 14.5587 40.7195 14.9934C41.6017 15.4795 42.1364 15.6469 43.1646 15.7966C44.1084 15.9339 45.1513 15.8887 45.6098 15.7966C46.42 15.6337 46.806 15.5944 47.4436 15.1273C48.0405 14.69 48.4201 14.3015 48.6662 13.6549C48.987 12.8118 48.8525 12.2529 48.6662 11.3793C48.5276 10.7293 48.0549 9.77304 48.0549 9.77304C48.0549 9.77304 47.8281 11.5005 47.7493 11.9147C47.5965 12.7179 47.518 12.9616 46.9852 13.3872C46.5102 13.7665 46.0947 13.8526 45.4569 13.9226C44.7365 14.0017 44.3034 13.877 43.6231 13.6549C42.9709 13.4419 42.6292 13.2424 42.0949 12.8517C41.4437 12.3756 41.2055 11.9882 40.7195 11.3793C40.0917 10.5928 39.9711 10.0246 39.3441 9.23762C38.6661 8.38672 38.2857 7.87435 37.3574 7.22978L37.317 7.20172C36.5867 6.6945 36.1295 6.37699 35.2179 6.15893C34.2392 5.92482 33.6114 5.97046 32.6199 6.15893C31.7316 6.32779 31.2184 6.49713 30.4804 6.96207C29.6554 7.48188 29.1832 7.87791 28.7994 8.70219C28.5916 9.14846 28.4937 9.9069 28.4937 9.9069C28.4937 9.9069 27.2701 10.5156 26.9655 11.2455C26.7401 11.7855 26.8127 12.7179 26.8127 12.7179C26.8127 12.7179 25.5792 12.8932 24.826 13.1194C23.4606 13.5297 22.7528 13.8119 21.6168 14.5919C20.4538 15.3903 19.8176 16.0463 19.0188 17.1351C18.0899 18.4014 17.8398 19.2756 17.4906 20.7492C17.2347 21.829 17.1388 22.4582 17.1849 23.5602Z" fill="#739536"/>
<path d="M16.7265 51.1346C16.4601 51.9792 15.9624 53.2763 15.9624 53.2763C15.9624 53.2763 17.0396 52.3935 17.7963 51.8039C18.5901 51.1852 19.0797 50.7489 19.9358 50.1976C20.2414 50.0008 21.0055 49.3753 21.9225 48.859C22.8394 48.3427 23.145 48.1897 24.062 47.7882C24.9789 47.3866 26.5071 47.1189 26.5071 47.1189C26.5071 47.1189 25.0396 47.1923 24.6732 47.2528C23.8335 47.3913 23.3337 47.5251 22.5337 47.7882C21.5564 48.1096 21.0864 48.4559 20.2414 48.9929C18.9771 49.7963 17.3378 51.4023 17.3378 51.4023C17.3378 51.4023 17.9912 49.4113 17.6434 48.1897C17.5201 47.7564 17.185 47.1189 17.185 47.1189C17.185 47.1189 17.3405 48.5973 17.185 49.5283C17.0781 50.1681 16.9231 50.5113 16.7265 51.1346Z" fill="white"/>
<path d="M43.1646 54.6148C43.3778 55.3186 43.7759 56.4888 43.7759 56.4888L42.7062 55.5518C42.4005 55.2841 41.3244 54.4754 40.4138 53.8117C39.5326 53.1693 39.0825 52.8868 38.1215 52.3393C37.271 51.8547 35.8292 51.2684 35.8292 51.2684L33.384 50.3314C33.384 50.3314 35.5977 50.5372 36.8989 51.0007C37.7152 51.2915 38.138 51.5291 38.8856 51.9377C39.5037 52.2755 39.8422 52.4792 40.4138 52.8747C40.9117 53.2191 41.1878 53.4188 41.6364 53.8117C42.085 54.2046 42.7062 54.8825 42.7062 54.8825C42.7062 54.8825 42.368 54.2457 42.2477 53.8117C42.1342 53.4021 42.1003 52.9335 42.0949 52.7408C42.0884 52.5096 42.06 51.9012 42.2477 51.4023C42.373 51.0692 42.7062 50.5991 42.7062 50.5991C42.7062 50.5991 42.7291 52.073 42.859 53.0085C42.9466 53.6398 42.9785 54.0001 43.1646 54.6148Z" fill="white"/>
<path d="M6.793 40.5599C6.28756 41.1356 6.05024 41.4988 5.72325 42.1662C5.49995 42.6219 5.40559 42.8906 5.26478 43.3709C4.83408 44.8401 4.97198 45.6465 4.80633 47.2527C4.64068 48.859 4.34787 50.733 4.19503 51.4023C4.04219 52.0716 3.84574 52.8747 4.19504 55.0164C4.48802 56.8127 4.92144 57.778 5.26478 59.5675C5.39487 60.2455 5.21184 60.696 5.57043 61.3076C5.91742 61.8995 6.29831 62.1645 6.94582 62.5123C7.63777 62.8841 8.13999 63.0278 8.93252 63.1816C10.0457 63.3976 11.8361 63.3155 11.8361 63.3155C11.8361 63.3155 15.0406 61.0704 17.0321 59.5675C18.793 58.2385 19.5983 57.3018 21.4639 56.0872C22.8856 55.1617 23.6609 54.5662 25.2844 53.9455C26.3743 53.5289 28.188 53.1424 28.188 53.1424C28.188 53.1424 24.485 54.9865 22.3808 56.4888C20.2874 57.9835 19.3407 59.0488 17.4905 60.7722C16.3327 61.8507 14.5869 63.5832 14.5869 63.5832C14.5869 63.5832 15.0481 67.9023 15.1982 70.6776C15.3564 73.6021 15.0428 75.2582 15.351 78.1735C15.5176 79.7489 15.589 80.6412 15.9623 82.1892C16.2825 83.517 16.4652 84.2725 17.0321 85.5356C17.7552 87.1469 18.2822 88.0383 19.4772 89.4174C20.5998 90.7129 21.4464 91.2867 22.8393 92.3622C24.4689 93.6206 25.4699 94.2433 27.2711 95.3071C29.6648 96.7208 31.2201 97.2099 33.6896 98.5196C36.4227 99.9691 38.1524 100.568 40.5666 102.401C42.1294 103.588 43.1367 104.212 44.2343 105.748C45.1577 107.04 45.54 107.874 45.9154 109.362C46.3173 110.955 46.2272 111.928 46.0796 113.522L46.0682 113.645C45.9162 115.291 45.1513 117.795 45.1513 117.795C45.1513 117.795 47.3455 115.506 48.2077 113.779C48.7826 112.628 48.9971 111.933 49.2774 110.701C49.6629 109.006 49.7381 108.006 49.5831 106.283C49.4589 104.904 49.2734 104.129 48.819 102.803C48.3344 101.39 47.924 100.628 47.1379 99.3228C46.273 97.8865 45.6589 97.1373 44.54 95.8425C43.4929 94.6309 42.7198 94.0845 41.6363 92.8977C40.1675 91.2888 39.3592 90.3659 38.1214 88.6143C36.9131 86.9043 36.2568 85.9184 35.3706 84.0632C34.6423 82.5382 34.3276 81.645 33.8424 80.0475C33.4813 78.8584 33.0783 76.9688 33.0783 76.9688C33.0783 76.9688 34.1501 79.9543 35.065 81.7876C35.9524 83.5656 36.4922 84.5574 37.663 86.2049C38.6345 87.572 39.0768 88.4459 40.4138 89.5513C41.1256 90.1398 42.4004 90.8898 42.4004 90.8898C42.4004 90.8898 40.9721 88.261 40.4138 86.4726C39.9815 85.088 39.8273 84.2854 39.6497 82.8585C39.3909 80.7798 39.5215 79.5922 39.6497 77.5042C39.7915 75.1927 39.9267 73.8898 40.4138 71.6145C40.8566 69.546 41.2946 68.421 41.942 66.3942C42.3948 64.9765 43.1646 62.78 43.1646 62.78C43.1646 62.78 40.3524 60.8855 39.0384 59.2998C38.5813 58.7482 37.9686 57.8274 37.9686 57.8274C37.9686 57.8274 40.6878 60.2196 42.7061 61.4415C44.1797 62.3337 45.4569 63.2954 46.6795 63.4493C47.9911 63.6145 48.8226 63.503 50.0415 63.0478C51.1395 62.6377 52.1279 62.1108 52.4867 61.4415C52.7454 60.9589 52.6864 60.6279 52.7923 60.1029C53.0539 58.8068 53.2014 58.0608 53.4036 56.7565C53.6638 55.0789 54.154 54.1618 54.0149 52.4731C53.945 51.6244 53.7932 51.1567 53.5564 50.3314C53.17 48.9843 52.5869 48.2223 52.3339 46.8512C52.1149 45.6643 52.4051 45.0925 52.1811 43.9063C51.9869 42.8787 51.7858 42.2991 51.2641 41.3631C50.573 40.1229 50.0268 39.4383 48.819 38.5521C48.2077 38.1036 47.309 37.607 46.221 37.2135C45.0838 36.8023 44.0815 36.6781 43.1646 36.6781C41.1779 36.6781 39.0384 37.0064 37.9686 37.2135C36.2876 37.5389 33.384 38.4182 31.7029 38.9536C30.5756 39.3127 29.831 39.3872 28.6465 39.2214C28.0312 39.1352 26.952 38.8397 26.3542 38.6859C24.9788 38.3322 23.6961 37.9189 21.4639 37.4812C19.9219 37.1789 18.2546 36.8698 17.4905 36.8119C16.1824 36.7129 15.0454 36.6781 14.1284 36.8119C13.2115 36.9458 12.607 37.1447 11.6833 37.4812C10.2752 37.9943 8.32122 39.2214 8.32122 39.2214C8.32122 39.2214 7.30753 39.9739 6.793 40.5599Z" fill="#739536"/>
</svg>
