<svg width="676" height="118" viewBox="0 0 676 118" fill="none" xmlns="http://www.w3.org/2000/svg">
<path d="M84.8438 79.25H92.2344C93.8073 79.25 95.1719 79.5052 96.3281 80.0156C97.4844 80.526 98.375 81.2812 99 82.2812C99.6354 83.2708 99.9531 84.4896 99.9531 85.9375C99.9531 87.0104 99.724 87.9844 99.2656 88.8594C98.8177 89.7344 98.1979 90.4688 97.4062 91.0625C96.6146 91.6458 95.6979 92.0469 94.6562 92.2656L93.9844 92.5156H86.0938L86.0625 90.875H92.6719C93.8594 90.875 94.849 90.6458 95.6406 90.1875C96.4323 89.7292 97.026 89.125 97.4219 88.375C97.8281 87.6146 98.0312 86.8021 98.0312 85.9375C98.0312 84.9062 97.8073 84.0156 97.3594 83.2656C96.9219 82.5052 96.2708 81.9219 95.4062 81.5156C94.5417 81.1094 93.4844 80.9062 92.2344 80.9062H86.7656V102H84.8438V79.25ZM98.8906 102L93 91.8281L95.0625 91.8125L100.938 101.797V102H98.8906ZM125.455 100.359V102H112.658V100.359H125.455ZM113.236 79.25V102H111.314V79.25H113.236ZM123.861 89.4531V91.0938H112.658V89.4531H123.861ZM125.377 79.25V80.9062H112.658V79.25H125.377ZM148.488 96.4062C148.488 95.7812 148.384 95.224 148.176 94.7344C147.967 94.2448 147.624 93.8073 147.144 93.4219C146.676 93.026 146.04 92.6615 145.238 92.3281C144.446 91.9844 143.457 91.6458 142.269 91.3125C141.134 90.9896 140.108 90.6354 139.191 90.25C138.275 89.8646 137.488 89.4219 136.832 88.9219C136.186 88.4219 135.691 87.8385 135.347 87.1719C135.004 86.4948 134.832 85.7083 134.832 84.8125C134.832 83.9375 135.019 83.1406 135.394 82.4219C135.769 81.7031 136.295 81.0833 136.972 80.5625C137.66 80.0417 138.467 79.6406 139.394 79.3594C140.332 79.0781 141.358 78.9375 142.472 78.9375C144.066 78.9375 145.441 79.2396 146.597 79.8438C147.764 80.4479 148.665 81.2656 149.301 82.2969C149.946 83.3177 150.269 84.4635 150.269 85.7344H148.347C148.347 84.7448 148.113 83.8646 147.644 83.0938C147.186 82.3125 146.519 81.7031 145.644 81.2656C144.78 80.8177 143.722 80.5938 142.472 80.5938C141.222 80.5938 140.17 80.7865 139.316 81.1719C138.472 81.5469 137.832 82.0521 137.394 82.6875C136.967 83.3125 136.754 84.0104 136.754 84.7812C136.754 85.3229 136.858 85.8229 137.066 86.2812C137.275 86.7292 137.613 87.151 138.082 87.5469C138.561 87.9323 139.191 88.2969 139.972 88.6406C140.754 88.974 141.717 89.2917 142.863 89.5938C144.071 89.9271 145.144 90.2969 146.082 90.7031C147.019 91.1094 147.811 91.5781 148.457 92.1094C149.103 92.6302 149.592 93.2396 149.926 93.9375C150.259 94.6354 150.426 95.4479 150.426 96.375C150.426 97.3021 150.228 98.1354 149.832 98.875C149.446 99.6042 148.9 100.224 148.191 100.734C147.493 101.245 146.665 101.635 145.707 101.906C144.759 102.177 143.722 102.312 142.597 102.312C141.587 102.312 140.582 102.182 139.582 101.922C138.582 101.661 137.665 101.26 136.832 100.719C136.009 100.167 135.347 99.4583 134.847 98.5938C134.358 97.7292 134.113 96.6979 134.113 95.5H136.019C136.019 96.4583 136.212 97.2656 136.597 97.9219C136.983 98.5781 137.493 99.1094 138.129 99.5156C138.775 99.9219 139.483 100.219 140.254 100.406C141.035 100.583 141.816 100.672 142.597 100.672C143.795 100.672 144.832 100.495 145.707 100.141C146.592 99.7865 147.275 99.2917 147.754 98.6562C148.243 98.0104 148.488 97.2604 148.488 96.4062ZM163.006 79.25V102H161.084V79.25H163.006ZM181.492 102H176.336L176.367 100.359H181.492C183.127 100.359 184.534 99.9948 185.711 99.2656C186.898 98.526 187.815 97.5052 188.461 96.2031C189.106 94.901 189.429 93.3906 189.429 91.6719V89.5469C189.429 88.2344 189.242 87.0469 188.867 85.9844C188.502 84.9219 187.976 84.0156 187.289 83.2656C186.601 82.5052 185.778 81.9219 184.82 81.5156C183.872 81.1094 182.81 80.9062 181.632 80.9062H176.242V79.25H181.632C183.049 79.25 184.346 79.4948 185.523 79.9844C186.711 80.4635 187.737 81.1615 188.601 82.0781C189.476 82.9844 190.148 84.0729 190.617 85.3438C191.096 86.6146 191.336 88.0312 191.336 89.5938V91.6719C191.336 93.2344 191.096 94.651 190.617 95.9219C190.148 97.1927 189.476 98.2812 188.601 99.1875C187.726 100.094 186.69 100.792 185.492 101.281C184.294 101.76 182.961 102 181.492 102ZM177.195 79.25V102H175.273V79.25H177.195ZM216.463 100.359V102H203.666V100.359H216.463ZM204.244 79.25V102H202.322V79.25H204.244ZM214.869 89.4531V91.0938H203.666V89.4531H214.869ZM216.384 79.25V80.9062H203.666V79.25H216.384ZM243.558 79.25V102H241.621L228.542 82.5625V102H226.621V79.25H228.542L241.652 98.6875V79.25H243.558ZM262.607 79.25V102H260.701V79.25H262.607ZM270.404 79.25V80.9062H252.919V79.25H270.404ZM282.531 79.25V102H280.609V79.25H282.531ZM302.548 80.6094L294.673 102H292.673L301.267 79.25H302.658L302.548 80.6094ZM309.704 102L301.814 80.6094L301.704 79.25H303.095L311.704 102H309.704ZM308.298 93.9688V95.625H296.22V93.9688H308.298ZM334.316 100.359V102H322.519V100.359H334.316ZM323.081 79.25V102H321.159V79.25H323.081ZM361.21 89.7344L364.866 86.9844C365.533 86.4948 366.08 85.9688 366.507 85.4062C366.944 84.8333 367.163 84.1615 367.163 83.3906C367.163 82.651 366.897 81.9896 366.366 81.4062C365.835 80.8229 365.069 80.5312 364.069 80.5312C363.34 80.5312 362.726 80.6927 362.226 81.0156C361.726 81.3281 361.351 81.7552 361.101 82.2969C360.851 82.8281 360.726 83.4115 360.726 84.0469C360.726 84.5469 360.825 85.0677 361.022 85.6094C361.231 86.1406 361.522 86.6979 361.897 87.2812C362.283 87.8542 362.746 88.4583 363.288 89.0938L374.351 102H372.101L362.679 91.0469C361.908 90.151 361.231 89.3229 360.647 88.5625C360.075 87.8021 359.632 87.0625 359.319 86.3438C359.007 85.625 358.851 84.8802 358.851 84.1094C358.851 83.0365 359.064 82.1146 359.491 81.3438C359.918 80.5729 360.522 79.9792 361.304 79.5625C362.085 79.1354 363.007 78.9219 364.069 78.9219C365.09 78.9219 365.96 79.1302 366.679 79.5469C367.408 79.9531 367.965 80.4948 368.351 81.1719C368.736 81.8385 368.929 82.5781 368.929 83.3906C368.929 84.0677 368.778 84.6979 368.476 85.2812C368.184 85.8646 367.804 86.3958 367.335 86.875C366.877 87.3438 366.392 87.776 365.882 88.1719L361.726 91.375C360.83 92.0938 360.163 92.7552 359.726 93.3594C359.299 93.9635 359.017 94.5 358.882 94.9688C358.746 95.4375 358.679 95.8438 358.679 96.1875C358.679 96.9896 358.866 97.7344 359.241 98.4219C359.616 99.1094 360.189 99.6615 360.96 100.078C361.731 100.495 362.7 100.703 363.866 100.703C364.845 100.703 365.793 100.495 366.71 100.078C367.627 99.651 368.444 99.0469 369.163 98.2656C369.892 97.474 370.465 96.5365 370.882 95.4531C371.309 94.3594 371.522 93.1458 371.522 91.8125H373.241C373.241 92.8021 373.142 93.7292 372.944 94.5938C372.757 95.4583 372.476 96.2552 372.101 96.9844C371.726 97.7135 371.262 98.3854 370.71 99C370.627 99.1042 370.569 99.1875 370.538 99.25C370.517 99.3125 370.465 99.3854 370.382 99.4688C369.549 100.344 368.569 101.036 367.444 101.547C366.319 102.057 365.127 102.312 363.866 102.312C362.418 102.312 361.163 102.057 360.101 101.547C359.049 101.036 358.236 100.323 357.663 99.4062C357.101 98.4792 356.819 97.4062 356.819 96.1875C356.819 95.2812 357.012 94.4583 357.397 93.7188C357.783 92.9792 358.309 92.2865 358.976 91.6406C359.642 90.9948 360.387 90.3594 361.21 89.7344ZM411.839 94.9062H413.761C413.604 96.4375 413.182 97.7604 412.495 98.875C411.807 99.9792 410.87 100.828 409.682 101.422C408.495 102.016 407.063 102.312 405.386 102.312C404.094 102.312 402.922 102.068 401.87 101.578C400.828 101.089 399.932 100.396 399.182 99.5C398.432 98.5938 397.854 97.5104 397.448 96.25C397.042 94.9896 396.839 93.5885 396.839 92.0469V89.2031C396.839 87.6615 397.042 86.2656 397.448 85.0156C397.854 83.7552 398.438 82.6719 399.198 81.7656C399.959 80.8594 400.87 80.1615 401.932 79.6719C402.995 79.1823 404.193 78.9375 405.526 78.9375C407.141 78.9375 408.537 79.2344 409.714 79.8281C410.891 80.4115 411.818 81.2552 412.495 82.3594C413.182 83.4635 413.604 84.7969 413.761 86.3594H411.839C411.693 85.1302 411.37 84.0885 410.87 83.2344C410.37 82.3802 409.677 81.7292 408.792 81.2812C407.917 80.8229 406.828 80.5938 405.526 80.5938C404.464 80.5938 403.516 80.7969 402.682 81.2031C401.849 81.6094 401.141 82.1927 400.557 82.9531C399.974 83.7031 399.526 84.6042 399.214 85.6562C398.912 86.7083 398.761 87.8802 398.761 89.1719V92.0469C398.761 93.2969 398.906 94.4479 399.198 95.5C399.49 96.5521 399.917 97.4635 400.479 98.2344C401.052 99.0052 401.75 99.6042 402.573 100.031C403.396 100.458 404.334 100.672 405.386 100.672C406.729 100.672 407.849 100.458 408.745 100.031C409.651 99.5938 410.354 98.9479 410.854 98.0938C411.354 97.2396 411.682 96.1771 411.839 94.9062ZM441.325 89.4062V91.8438C441.325 93.4375 441.117 94.8802 440.7 96.1719C440.294 97.4531 439.7 98.5521 438.919 99.4688C438.148 100.385 437.221 101.089 436.138 101.578C435.054 102.068 433.835 102.312 432.481 102.312C431.158 102.312 429.95 102.068 428.856 101.578C427.773 101.089 426.841 100.385 426.059 99.4688C425.278 98.5521 424.674 97.4531 424.247 96.1719C423.82 94.8802 423.606 93.4375 423.606 91.8438V89.4062C423.606 87.8125 423.815 86.375 424.231 85.0938C424.658 83.8021 425.263 82.6979 426.044 81.7812C426.825 80.8646 427.757 80.1615 428.841 79.6719C429.924 79.1823 431.127 78.9375 432.45 78.9375C433.804 78.9375 435.023 79.1823 436.106 79.6719C437.19 80.1615 438.122 80.8646 438.903 81.7812C439.684 82.6979 440.283 83.8021 440.7 85.0938C441.117 86.375 441.325 87.8125 441.325 89.4062ZM439.419 91.8438V89.375C439.419 88.0312 439.263 86.8229 438.95 85.75C438.648 84.6771 438.195 83.7604 437.591 83C436.997 82.2396 436.268 81.6562 435.403 81.25C434.539 80.8438 433.554 80.6406 432.45 80.6406C431.377 80.6406 430.414 80.8438 429.559 81.25C428.705 81.6562 427.976 82.2396 427.372 83C426.778 83.7604 426.32 84.6771 425.997 85.75C425.684 86.8229 425.528 88.0312 425.528 89.375V91.8438C425.528 93.1979 425.684 94.4167 425.997 95.5C426.32 96.5729 426.783 97.4948 427.388 98.2656C427.992 99.026 428.721 99.6094 429.575 100.016C430.44 100.422 431.408 100.625 432.481 100.625C433.596 100.625 434.58 100.422 435.434 100.016C436.289 99.6094 437.013 99.026 437.606 98.2656C438.2 97.4948 438.648 96.5729 438.95 95.5C439.263 94.4167 439.419 93.1979 439.419 91.8438ZM452.858 79.25H454.796L463.202 99.2812L471.624 79.25H473.546L463.936 102H462.467L452.858 79.25ZM452.264 79.25H453.967L454.171 92.0625V102H452.264V79.25ZM472.467 79.25H474.171V102H472.249V92.0625L472.467 79.25ZM486.626 79.25H488.563L496.969 99.2812L505.391 79.25H507.313L497.704 102H496.235L486.626 79.25ZM486.032 79.25H487.735L487.938 92.0625V102H486.032V79.25ZM506.235 79.25H507.938V102H506.016V92.0625L506.235 79.25ZM533.94 100.359V102H521.143V100.359H533.94ZM521.721 79.25V102H519.799V79.25H521.721ZM532.346 89.4531V91.0938H521.143V89.4531H532.346ZM533.862 79.25V80.9062H521.143V79.25H533.862ZM544.051 79.25H551.442C553.015 79.25 554.379 79.5052 555.536 80.0156C556.692 80.526 557.582 81.2812 558.207 82.2812C558.843 83.2708 559.161 84.4896 559.161 85.9375C559.161 87.0104 558.931 87.9844 558.473 88.8594C558.025 89.7344 557.405 90.4688 556.614 91.0625C555.822 91.6458 554.905 92.0469 553.864 92.2656L553.192 92.5156H545.301L545.27 90.875H551.879C553.067 90.875 554.056 90.6458 554.848 90.1875C555.64 89.7292 556.234 89.125 556.629 88.375C557.036 87.6146 557.239 86.8021 557.239 85.9375C557.239 84.9062 557.015 84.0156 556.567 83.2656C556.129 82.5052 555.478 81.9219 554.614 81.5156C553.749 81.1094 552.692 80.9062 551.442 80.9062H545.973V102H544.051V79.25ZM558.098 102L552.207 91.8281L554.27 91.8125L560.145 101.797V102H558.098ZM584.694 94.9062H586.616C586.459 96.4375 586.038 97.7604 585.35 98.875C584.663 99.9792 583.725 100.828 582.538 101.422C581.35 102.016 579.918 102.312 578.241 102.312C576.949 102.312 575.777 102.068 574.725 101.578C573.683 101.089 572.788 100.396 572.038 99.5C571.288 98.5938 570.709 97.5104 570.303 96.25C569.897 94.9896 569.694 93.5885 569.694 92.0469V89.2031C569.694 87.6615 569.897 86.2656 570.303 85.0156C570.709 83.7552 571.293 82.6719 572.053 81.7656C572.814 80.8594 573.725 80.1615 574.788 79.6719C575.85 79.1823 577.048 78.9375 578.381 78.9375C579.996 78.9375 581.392 79.2344 582.569 79.8281C583.746 80.4115 584.673 81.2552 585.35 82.3594C586.038 83.4635 586.459 84.7969 586.616 86.3594H584.694C584.548 85.1302 584.225 84.0885 583.725 83.2344C583.225 82.3802 582.532 81.7292 581.647 81.2812C580.772 80.8229 579.683 80.5938 578.381 80.5938C577.319 80.5938 576.371 80.7969 575.538 81.2031C574.704 81.6094 573.996 82.1927 573.413 82.9531C572.829 83.7031 572.381 84.6042 572.069 85.6562C571.767 86.7083 571.616 87.8802 571.616 89.1719V92.0469C571.616 93.2969 571.761 94.4479 572.053 95.5C572.345 96.5521 572.772 97.4635 573.334 98.2344C573.907 99.0052 574.605 99.6042 575.428 100.031C576.251 100.458 577.189 100.672 578.241 100.672C579.584 100.672 580.704 100.458 581.6 100.031C582.506 99.5938 583.209 98.9479 583.709 98.0938C584.209 97.2396 584.538 96.1771 584.694 94.9062ZM599.727 79.25V102H597.805V79.25H599.727ZM619.744 80.6094L611.869 102H609.869L618.463 79.25H619.854L619.744 80.6094ZM626.901 102L619.01 80.6094L618.901 79.25H620.291L628.901 102H626.901ZM625.494 93.9688V95.625H613.416V93.9688H625.494ZM651.512 100.359V102H639.715V100.359H651.512ZM640.278 79.25V102H638.356V79.25H640.278Z" fill="white"/>
<path d="M89.936 62C87.8027 62 86.3733 61.8933 85.648 61.68C84.9227 61.424 84.56 61.0187 84.56 60.464V20.656C84.56 19.7173 85.7973 18.8 88.272 17.904C90.7467 16.9653 93.52 16.496 96.592 16.496C99.3227 16.496 101.115 17.072 101.968 18.224C102.267 18.6507 102.416 19.0773 102.416 19.504V47.856C107.621 47.5147 111.547 47.344 114.192 47.344C115.088 47.344 115.536 48.7733 115.536 51.632C115.536 54.448 115.344 56.88 114.96 58.928C114.576 60.976 114.064 62 113.424 62H89.936ZM137.037 58.736C136.951 59.9733 136.29 60.8267 135.053 61.296C133.858 61.7653 131.682 62 128.525 62C125.367 62 122.722 61.7227 120.589 61.168C118.498 60.5707 117.453 59.824 117.453 58.928C117.453 57.904 119.351 51.376 123.149 39.344C126.946 27.2693 129.122 20.3147 129.677 18.48C129.89 17.9253 131.597 17.4773 134.797 17.136C138.039 16.752 141.495 16.56 145.165 16.56C148.877 16.56 150.925 17.2 151.309 18.48C159.373 45.2747 163.405 58.8853 163.405 59.312C163.405 59.7387 163.149 60.1653 162.637 60.592C161.442 61.5307 159.074 62 155.533 62C147.981 62 144.119 61.104 143.949 59.312L143.501 55.152H137.357L137.037 58.736ZM142.157 42.992L141.197 31.472H139.789L138.701 42.992H142.157ZM184.479 60.144C184.479 60.6987 183.156 61.1467 180.51 61.488C177.908 61.8293 175.305 62 172.703 62C170.1 62 168.436 61.8507 167.711 61.552C166.985 61.2533 166.623 60.784 166.623 60.144V20.848C166.623 19.7813 167.839 18.8 170.271 17.904C172.745 17.008 175.54 16.56 178.655 16.56C179.764 16.56 180.596 16.6027 181.151 16.688C182.601 16.9013 183.625 17.8187 184.223 19.44L190.367 35.952H190.623V20.848C190.623 19.7813 191.839 18.8 194.271 17.904C196.703 17.008 199.476 16.56 202.591 16.56C205.279 16.56 206.985 17.072 207.711 18.096C208.223 18.8213 208.479 19.4827 208.479 20.08V60.144C208.479 60.6987 207.156 61.1467 204.511 61.488C201.908 61.8293 199.028 62 195.871 62C192.756 62 191.049 61.5947 190.751 60.784L184.799 45.04H184.479V60.144ZM234.039 62H218.935C216.844 62 215.436 61.8507 214.711 61.552C213.985 61.2533 213.623 60.7627 213.623 60.08V19.696C213.623 18.5867 214.092 17.7973 215.031 17.328C215.969 16.816 217.591 16.56 219.895 16.56H234.295C242.487 16.56 248.14 18.1813 251.255 21.424C254.369 24.624 255.927 30.4693 255.927 38.96C255.927 47.4507 254.305 53.424 251.062 56.88C247.82 60.2933 242.145 62 234.039 62ZM233.527 26.096C232.503 26.096 231.82 26.1813 231.479 26.352V52.208L233.911 52.464C235.191 52.464 236.151 51.44 236.791 49.392C237.473 47.344 237.815 43.8027 237.815 38.768C237.815 33.7333 237.473 30.3627 236.791 28.656C236.108 26.9493 235.02 26.096 233.527 26.096ZM293.011 59.312C291.731 60.2507 289.939 61.04 287.635 61.68C285.374 62.2773 282.43 62.576 278.803 62.576C275.219 62.576 271.806 62.2773 268.563 61.68C265.32 61.0827 262.995 60.4213 261.587 59.696C260.179 58.9707 259.475 58.2667 259.475 57.584C259.475 55.1947 259.816 52.72 260.499 50.16C261.182 47.5573 261.992 46.256 262.931 46.256C263.102 46.256 264.872 46.832 268.243 47.984C271.614 49.136 274.152 49.712 275.859 49.712C277.566 49.712 278.675 49.5413 279.187 49.2C279.699 48.816 279.955 48.2827 279.955 47.6C279.955 46.9173 279.486 46.32 278.547 45.808C277.608 45.2533 276.435 44.784 275.027 44.4C273.619 43.9733 272.083 43.376 270.419 42.608C268.798 41.84 267.283 40.9867 265.875 40.048C264.467 39.1093 263.294 37.7867 262.355 36.08C261.416 34.3307 260.947 32.3467 260.947 30.128C260.947 20.656 266.6 15.92 277.907 15.92C282.131 15.92 285.779 16.1973 288.851 16.752C291.923 17.264 294.078 17.8613 295.315 18.544C296.595 19.184 297.235 19.824 297.235 20.464C297.235 22.6827 296.702 25.072 295.635 27.632C294.611 30.192 293.608 31.472 292.627 31.472C292.456 31.472 291.902 31.28 290.963 30.896C288.147 29.6587 285.8 29.04 283.923 29.04C282.088 29.04 280.83 29.2107 280.147 29.552C279.507 29.8933 279.187 30.4267 279.187 31.152C279.187 31.8347 279.656 32.4107 280.595 32.88C281.534 33.3067 282.686 33.712 284.051 34.096C285.459 34.4373 286.974 34.992 288.595 35.76C290.259 36.4853 291.795 37.36 293.203 38.384C294.611 39.3653 295.784 40.7733 296.723 42.608C297.662 44.4427 298.131 46.576 298.131 49.008C298.131 51.568 297.47 53.8933 296.147 55.984C295.336 57.264 294.291 58.3733 293.011 59.312ZM334.374 61.552C332.667 61.936 330.918 62.192 329.126 62.32C327.377 62.4907 325.649 62.576 323.942 62.576C322.278 62.576 320.977 62.5333 320.038 62.448C319.142 62.3627 317.947 62.1493 316.454 61.808C314.961 61.4667 313.595 60.9973 312.358 60.4C311.121 59.8027 309.798 58.928 308.39 57.776C307.025 56.624 305.873 55.2587 304.934 53.68C302.758 50.0107 301.67 45.2747 301.67 39.472C301.67 35.5893 302.267 32.1547 303.462 29.168C304.699 26.1813 306.171 23.8773 307.878 22.256C309.627 20.6347 311.611 19.3333 313.83 18.352C317.414 16.7307 321.019 15.92 324.646 15.92C329.851 15.92 333.585 16.3467 335.846 17.2C336.87 17.584 337.787 18.1813 338.598 18.992C339.409 19.8027 339.814 20.976 339.814 22.512C339.814 24.048 339.43 25.9893 338.662 28.336C337.937 30.6827 336.87 31.856 335.462 31.856C335.035 31.856 333.457 31.5147 330.726 30.832C327.995 30.1493 326.139 29.808 325.158 29.808C323.665 29.808 322.385 30.64 321.318 32.304C320.294 33.968 319.782 36.336 319.782 39.408C319.782 42.48 320.23 44.8693 321.126 46.576C322.065 48.2827 323.281 49.136 324.774 49.136C325.841 49.136 327.761 48.7093 330.534 47.856C333.35 46.96 334.993 46.512 335.462 46.512C336.785 46.512 337.809 47.728 338.534 50.16C339.302 52.592 339.686 54.5547 339.686 56.048C339.686 57.5413 339.217 58.736 338.278 59.632C337.382 60.4853 336.081 61.1253 334.374 61.552ZM361.974 58.736C361.889 59.9733 361.227 60.8267 359.99 61.296C358.795 61.7653 356.619 62 353.462 62C350.305 62 347.659 61.7227 345.526 61.168C343.435 60.5707 342.39 59.824 342.39 58.928C342.39 57.904 344.289 51.376 348.086 39.344C351.883 27.2693 354.059 20.3147 354.614 18.48C354.827 17.9253 356.534 17.4773 359.734 17.136C362.977 16.752 366.433 16.56 370.102 16.56C373.814 16.56 375.862 17.2 376.246 18.48C384.31 45.2747 388.342 58.8853 388.342 59.312C388.342 59.7387 388.086 60.1653 387.574 60.592C386.379 61.5307 384.011 62 380.47 62C372.918 62 369.057 61.104 368.886 59.312L368.438 55.152H362.294L361.974 58.736ZM367.094 42.992L366.134 31.472H364.726L363.638 42.992H367.094ZM409.352 60.144C409.352 60.6987 408.051 61.1467 405.448 61.488C402.845 61.8293 400.243 62 397.64 62C395.037 62 393.373 61.8507 392.648 61.552C391.923 61.2533 391.56 60.784 391.56 60.144V18.992C391.56 16.944 397.704 15.92 409.992 15.92C417.416 15.92 422.323 16.432 424.712 17.456C427.613 18.6507 429.576 20.272 430.6 22.32C431.965 24.9653 432.648 28.3573 432.648 32.496C432.648 38.1707 431.667 42.288 429.704 44.848C428.296 46.7253 426.888 47.9413 425.48 48.496C424.072 49.0507 422.899 49.456 421.96 49.712C421.064 49.9253 419.933 50.096 418.568 50.224C416.691 50.3947 414.131 50.48 410.888 50.48L409.352 50.416V60.144ZM409.416 39.792H410.952C411.763 39.792 412.403 39.6853 412.872 39.472C413.341 39.216 413.747 38.576 414.088 37.552C414.472 36.4853 414.664 35.0133 414.664 33.136C414.664 31.216 414.451 29.7653 414.024 28.784C413.64 27.76 413.235 27.1627 412.808 26.992C412.424 26.7787 411.955 26.672 411.4 26.672H409.416V39.792ZM469.258 62H442.122C440.031 62 438.623 61.8507 437.898 61.552C437.173 61.2533 436.81 60.784 436.81 60.144V19.632C436.81 18.5227 437.301 17.7333 438.282 17.264C439.306 16.7947 441.119 16.56 443.722 16.56H469.45C470.346 16.56 470.794 18.0533 470.794 21.04C470.794 23.984 470.602 26.2453 470.218 27.824C469.834 29.36 469.322 30.128 468.682 30.128C465.909 30.128 461.237 29.8507 454.666 29.296V33.584C460.981 33.328 465.098 33.2 467.018 33.2C468.17 33.2 468.746 34.544 468.746 37.232C468.746 39.92 468.511 41.968 468.042 43.376C467.615 44.7413 467.018 45.424 466.25 45.424L454.666 45.168V49.264C462.09 48.7093 467.21 48.432 470.026 48.432C470.922 48.432 471.37 49.9253 471.37 52.912C471.37 55.8987 471.178 58.16 470.794 59.696C470.41 61.232 469.898 62 469.258 62Z" fill="white"/>
<path d="M489.76 62.512C488.31 62.512 486.966 62.3627 485.729 62.064C484.491 61.7653 483.19 61.1467 481.825 60.208C480.502 59.2267 479.371 57.9467 478.433 56.368C476.299 52.784 475.233 47.3867 475.233 40.176C475.233 36.208 475.766 32.7093 476.833 29.68C477.899 26.6507 479.243 24.304 480.865 22.64C482.486 20.9333 484.427 19.5467 486.689 18.48C488.95 17.4133 491.062 16.7307 493.025 16.432C494.987 16.0907 497.078 15.92 499.297 15.92C504.417 15.92 508.022 16.368 510.113 17.264C512.203 18.1173 513.249 19.7813 513.249 22.256C513.249 24.2187 512.886 26.352 512.161 28.656C511.435 30.9173 510.369 32.048 508.961 32.048C508.619 32.048 507.169 31.728 504.609 31.088C502.049 30.4053 500.129 30.064 498.849 30.064C495.179 30.064 493.345 33.1573 493.345 39.344C493.345 42.4587 493.771 44.784 494.625 46.32C495.478 47.8133 496.545 48.6453 497.825 48.816V43.056C497.825 41.9893 498.913 41.008 501.089 40.112C503.265 39.216 505.355 38.768 507.361 38.768C509.366 38.768 510.817 38.896 511.713 39.152C512.651 39.408 513.291 39.7707 513.633 40.24C514.23 41.008 514.529 41.6907 514.529 42.288V60.016C514.529 60.5707 513.398 61.0187 511.137 61.36C508.918 61.7013 506.593 61.872 504.161 61.872C501.771 61.872 500.257 61.7653 499.617 61.552C498.977 61.296 498.614 60.6347 498.529 59.568L498.081 55.792H497.569C497.27 57.6267 496.502 59.2053 495.265 60.528C494.07 61.8507 492.235 62.512 489.76 62.512ZM551.446 62H524.31C522.219 62 520.811 61.8507 520.086 61.552C519.36 61.2533 518.998 60.784 518.998 60.144V19.632C518.998 18.5227 519.488 17.7333 520.47 17.264C521.494 16.7947 523.307 16.56 525.91 16.56H551.638C552.534 16.56 552.982 18.0533 552.982 21.04C552.982 23.984 552.79 26.2453 552.406 27.824C552.022 29.36 551.51 30.128 550.87 30.128C548.096 30.128 543.424 29.8507 536.854 29.296V33.584C543.168 33.328 547.286 33.2 549.206 33.2C550.358 33.2 550.934 34.544 550.934 37.232C550.934 39.92 550.699 41.968 550.229 43.376C549.803 44.7413 549.206 45.424 548.438 45.424L536.854 45.168V49.264C544.278 48.7093 549.398 48.432 552.214 48.432C553.11 48.432 553.558 49.9253 553.558 52.912C553.558 55.8987 553.366 58.16 552.982 59.696C552.598 61.232 552.086 62 551.446 62ZM575.916 60.144C575.916 60.6987 574.593 61.1467 571.948 61.488C569.345 61.8293 566.743 62 564.14 62C561.537 62 559.873 61.8507 559.148 61.552C558.423 61.2533 558.06 60.784 558.06 60.144V20.848C558.06 19.7813 559.276 18.8 561.708 17.904C564.183 17.008 566.977 16.56 570.092 16.56C571.201 16.56 572.033 16.6027 572.588 16.688C574.039 16.9013 575.063 17.8187 575.66 19.44L581.804 35.952H582.06V20.848C582.06 19.7813 583.276 18.8 585.708 17.904C588.14 17.008 590.913 16.56 594.028 16.56C596.716 16.56 598.423 17.072 599.148 18.096C599.66 18.8213 599.916 19.4827 599.916 20.08V60.144C599.916 60.6987 598.593 61.1467 595.948 61.488C593.345 61.8293 590.465 62 587.308 62C584.193 62 582.487 61.5947 582.188 60.784L576.236 45.04H575.916V60.144ZM622.916 60.464C622.916 60.9333 621.615 61.3173 619.012 61.616C616.409 61.872 613.785 62 611.14 62C608.537 62 606.873 61.8933 606.148 61.68C605.423 61.424 605.06 61.0187 605.06 60.464V20.656C605.06 19.7173 606.297 18.8 608.772 17.904C611.247 16.9653 614.02 16.496 617.092 16.496C619.823 16.496 621.615 17.072 622.468 18.224C622.767 18.6507 622.916 19.0773 622.916 19.504V60.464ZM660.508 62H633.372C631.281 62 629.873 61.8507 629.148 61.552C628.423 61.2533 628.06 60.784 628.06 60.144V19.632C628.06 18.5227 628.551 17.7333 629.532 17.264C630.556 16.7947 632.369 16.56 634.972 16.56H660.7C661.596 16.56 662.044 18.0533 662.044 21.04C662.044 23.984 661.852 26.2453 661.468 27.824C661.084 29.36 660.572 30.128 659.932 30.128C657.159 30.128 652.487 29.8507 645.916 29.296V33.584C652.231 33.328 656.348 33.2 658.268 33.2C659.42 33.2 659.996 34.544 659.996 37.232C659.996 39.92 659.761 41.968 659.292 43.376C658.865 44.7413 658.268 45.424 657.5 45.424L645.916 45.168V49.264C653.34 48.7093 658.46 48.432 661.276 48.432C662.172 48.432 662.62 49.9253 662.62 52.912C662.62 55.8987 662.428 58.16 662.044 59.696C661.66 61.232 661.148 62 660.508 62Z" fill="#739536"/>
<path d="M13.1849 23.5602C13.227 24.5651 13.6434 26.1035 13.6434 26.1035H11.1982C11.1982 26.1035 11.2361 26.8721 11.3511 27.1743C11.4661 27.4765 11.8957 28.219 12.5736 28.9145C13.2336 29.5915 13.6259 30.0368 14.5603 30.3869C14.9598 30.5365 15.6301 30.6546 15.6301 30.6546C15.6301 30.6546 16.1158 31.6699 16.547 32.2609C17.0944 33.0109 17.3883 33.345 18.0752 34.001C18.8169 34.7092 19.3344 35.1675 20.2147 35.7411C21.1358 36.3413 21.7137 36.6553 22.8127 36.9458C24.2422 37.3238 25.1732 37.3539 26.6332 37.0797C27.9905 36.8248 28.7105 36.4449 29.8425 35.7411C30.9167 35.0733 31.41 34.5429 32.2254 33.6663L32.2876 33.5994C33.2709 32.5428 34.4271 30.6546 34.4271 30.6546C34.4271 30.6546 35.2224 30.6008 35.6497 30.3869C36.7195 29.8515 38.0949 28.7806 38.7062 28.1113C39.09 27.6911 39.357 27.4356 39.4703 26.9066C39.5363 26.5984 39.4703 26.2374 39.3174 26.1035C39.1646 25.9696 36.5666 26.1035 36.5666 26.1035C36.5666 26.1035 37.0452 24.3192 37.0251 23.1587C37.0105 22.3159 37.045 21.8462 36.8723 21.017C36.7294 20.3308 36.5302 19.9332 36.261 19.2768C35.9903 18.6168 35.7504 18.2749 35.3441 17.6706C34.823 16.8956 34.4986 16.4683 33.8159 15.7966C33.1698 15.161 32.7786 14.8112 31.982 14.3242C31.1066 13.7889 30.5162 13.6255 29.5368 13.2533C28.7743 12.9635 27.3974 12.584 27.3974 12.584C27.3974 12.584 27.613 11.5257 27.2445 10.9777C26.9875 10.5956 26.7162 10.459 26.3276 10.1746C26.0986 10.007 25.7163 9.77304 25.7163 9.77304C25.7163 9.77304 26.0569 9.02711 26.4804 8.70219C27.0483 8.26655 27.5622 8.22444 28.3143 8.16677C29.2237 8.09702 29.7848 8.22001 30.6066 8.56834C31.3701 8.89198 31.7377 9.20739 32.2876 9.77304C32.9454 10.4496 33.2409 11.3793 33.5102 11.7809C34.0133 12.5311 34.2243 13.0057 34.8856 13.6549C35.5063 14.2641 35.9304 14.5587 36.7195 14.9934C37.6017 15.4795 38.1364 15.6469 39.1646 15.7966C40.1084 15.9339 41.1513 15.8887 41.6098 15.7966C42.42 15.6337 42.806 15.5944 43.4436 15.1273C44.0405 14.69 44.4201 14.3015 44.6662 13.6549C44.987 12.8118 44.8525 12.2529 44.6662 11.3793C44.5276 10.7293 44.0549 9.77304 44.0549 9.77304C44.0549 9.77304 43.8281 11.5005 43.7493 11.9147C43.5965 12.7179 43.518 12.9616 42.9852 13.3872C42.5102 13.7665 42.0947 13.8526 41.4569 13.9226C40.7365 14.0017 40.3034 13.877 39.6231 13.6549C38.9709 13.4419 38.6292 13.2424 38.0949 12.8517C37.4437 12.3756 37.2055 11.9882 36.7195 11.3793C36.0917 10.5928 35.9711 10.0246 35.3441 9.23762C34.6661 8.38672 34.2857 7.87435 33.3574 7.22978L33.317 7.20172C32.5867 6.6945 32.1295 6.37699 31.2179 6.15893C30.2392 5.92482 29.6114 5.97046 28.6199 6.15893C27.7316 6.32779 27.2184 6.49713 26.4804 6.96207C25.6554 7.48188 25.1832 7.87791 24.7994 8.70219C24.5916 9.14846 24.4937 9.9069 24.4937 9.9069C24.4937 9.9069 23.2701 10.5156 22.9655 11.2455C22.7401 11.7855 22.8127 12.7179 22.8127 12.7179C22.8127 12.7179 21.5792 12.8932 20.826 13.1194C19.4606 13.5297 18.7528 13.8119 17.6168 14.5919C16.4538 15.3903 15.8176 16.0463 15.0188 17.1351C14.0899 18.4014 13.8398 19.2756 13.4906 20.7492C13.2347 21.829 13.1388 22.4582 13.1849 23.5602Z" fill="white"/>
<path d="M12.7265 51.1346C12.4601 51.9792 11.9624 53.2763 11.9624 53.2763C11.9624 53.2763 13.0396 52.3935 13.7963 51.8039C14.5901 51.1852 15.0797 50.7489 15.9358 50.1976C16.2414 50.0008 17.0055 49.3753 17.9225 48.859C18.8394 48.3427 19.145 48.1897 20.062 47.7882C20.9789 47.3866 22.5071 47.1189 22.5071 47.1189C22.5071 47.1189 21.0396 47.1923 20.6732 47.2528C19.8335 47.3913 19.3337 47.5251 18.5337 47.7882C17.5564 48.1096 17.0864 48.4559 16.2414 48.9929C14.9771 49.7963 13.3378 51.4023 13.3378 51.4023C13.3378 51.4023 13.9912 49.4113 13.6434 48.1897C13.5201 47.7564 13.185 47.1189 13.185 47.1189C13.185 47.1189 13.3405 48.5973 13.185 49.5283C13.0781 50.1681 12.9231 50.5113 12.7265 51.1346Z" fill="white"/>
<path d="M39.1646 54.6148C39.3778 55.3186 39.7759 56.4888 39.7759 56.4888L38.7062 55.5518C38.4005 55.2841 37.3244 54.4754 36.4138 53.8117C35.5326 53.1693 35.0825 52.8868 34.1215 52.3393C33.271 51.8547 31.8292 51.2684 31.8292 51.2684L29.384 50.3314C29.384 50.3314 31.5977 50.5372 32.8989 51.0007C33.7152 51.2915 34.138 51.5291 34.8856 51.9377C35.5037 52.2755 35.8422 52.4792 36.4138 52.8747C36.9117 53.2191 37.1878 53.4188 37.6364 53.8117C38.085 54.2046 38.7062 54.8825 38.7062 54.8825C38.7062 54.8825 38.368 54.2457 38.2477 53.8117C38.1342 53.4021 38.1003 52.9335 38.0949 52.7408C38.0884 52.5096 38.06 51.9012 38.2477 51.4023C38.373 51.0692 38.7062 50.5991 38.7062 50.5991C38.7062 50.5991 38.7291 52.073 38.859 53.0085C38.9466 53.6398 38.9785 54.0001 39.1646 54.6148Z" fill="white"/>
<path d="M2.793 40.5599C2.28756 41.1356 2.05024 41.4988 1.72325 42.1662C1.49995 42.6219 1.40559 42.8906 1.26478 43.3709C0.834083 44.8401 0.971984 45.6465 0.806334 47.2527C0.640685 48.859 0.34787 50.733 0.19503 51.4023C0.0421899 52.0716 -0.154265 52.8747 0.195042 55.0164C0.488025 56.8127 0.921445 57.778 1.26478 59.5675C1.39487 60.2455 1.21184 60.696 1.57043 61.3076C1.91742 61.8995 2.29831 62.1645 2.94582 62.5123C3.63777 62.8841 4.13999 63.0278 4.93252 63.1816C6.04572 63.3976 7.83612 63.3155 7.83612 63.3155C7.83612 63.3155 11.0406 61.0704 13.0321 59.5675C14.793 58.2385 15.5983 57.3018 17.4639 56.0872C18.8856 55.1617 19.6609 54.5662 21.2844 53.9455C22.3743 53.5289 24.188 53.1424 24.188 53.1424C24.188 53.1424 20.485 54.9865 18.3808 56.4888C16.2874 57.9835 15.3407 59.0488 13.4905 60.7722C12.3327 61.8507 10.5869 63.5832 10.5869 63.5832C10.5869 63.5832 11.0481 67.9023 11.1982 70.6776C11.3564 73.6021 11.0428 75.2582 11.351 78.1735C11.5176 79.7489 11.589 80.6412 11.9623 82.1892C12.2825 83.517 12.4652 84.2725 13.0321 85.5356C13.7552 87.1469 14.2822 88.0383 15.4772 89.4174C16.5998 90.7129 17.4464 91.2867 18.8393 92.3622C20.4689 93.6206 21.4699 94.2433 23.2711 95.3071C25.6648 96.7208 27.2201 97.2099 29.6896 98.5196C32.4227 99.9691 34.1524 100.568 36.5666 102.401C38.1294 103.588 39.1367 104.212 40.2343 105.748C41.1577 107.04 41.54 107.874 41.9154 109.362C42.3173 110.955 42.2272 111.928 42.0796 113.522L42.0682 113.645C41.9162 115.291 41.1513 117.795 41.1513 117.795C41.1513 117.795 43.3455 115.506 44.2077 113.779C44.7826 112.628 44.9971 111.933 45.2774 110.701C45.6629 109.006 45.7381 108.006 45.5831 106.283C45.4589 104.904 45.2734 104.129 44.819 102.803C44.3344 101.39 43.924 100.628 43.1379 99.3228C42.273 97.8865 41.6589 97.1373 40.54 95.8425C39.4929 94.6309 38.7198 94.0845 37.6363 92.8977C36.1675 91.2888 35.3592 90.3659 34.1214 88.6143C32.9131 86.9043 32.2568 85.9184 31.3706 84.0632C30.6423 82.5382 30.3276 81.645 29.8424 80.0475C29.4813 78.8584 29.0783 76.9688 29.0783 76.9688C29.0783 76.9688 30.1501 79.9543 31.065 81.7876C31.9524 83.5656 32.4922 84.5574 33.663 86.2049C34.6345 87.572 35.0768 88.4459 36.4138 89.5513C37.1256 90.1398 38.4004 90.8898 38.4004 90.8898C38.4004 90.8898 36.9721 88.261 36.4138 86.4726C35.9815 85.088 35.8273 84.2854 35.6497 82.8585C35.3909 80.7798 35.5215 79.5922 35.6497 77.5042C35.7915 75.1927 35.9267 73.8898 36.4138 71.6145C36.8566 69.546 37.2946 68.421 37.942 66.3942C38.3948 64.9765 39.1646 62.78 39.1646 62.78C39.1646 62.78 36.3524 60.8855 35.0384 59.2998C34.5813 58.7482 33.9686 57.8274 33.9686 57.8274C33.9686 57.8274 36.6878 60.2196 38.7061 61.4415C40.1797 62.3337 41.4569 63.2954 42.6795 63.4493C43.9911 63.6145 44.8226 63.503 46.0415 63.0478C47.1395 62.6377 48.1279 62.1108 48.4867 61.4415C48.7454 60.9589 48.6864 60.6279 48.7923 60.1029C49.0539 58.8068 49.2014 58.0608 49.4036 56.7565C49.6638 55.0789 50.154 54.1618 50.0149 52.4731C49.945 51.6244 49.7932 51.1567 49.5564 50.3314C49.17 48.9843 48.5869 48.2223 48.3339 46.8512C48.1149 45.6643 48.4051 45.0925 48.1811 43.9063C47.9869 42.8787 47.7858 42.2991 47.2641 41.3631C46.573 40.1229 46.0268 39.4383 44.819 38.5521C44.2077 38.1036 43.309 37.607 42.221 37.2135C41.0838 36.8023 40.0815 36.6781 39.1646 36.6781C37.1779 36.6781 35.0384 37.0064 33.9686 37.2135C32.2876 37.5389 29.384 38.4182 27.7029 38.9536C26.5756 39.3127 25.831 39.3872 24.6465 39.2214C24.0312 39.1352 22.952 38.8397 22.3542 38.6859C20.9788 38.3322 19.6961 37.9189 17.4639 37.4812C15.9219 37.1789 14.2546 36.8698 13.4905 36.8119C12.1824 36.7129 11.0454 36.6781 10.1284 36.8119C9.2115 36.9458 8.60699 37.1447 7.68329 37.4812C6.2752 37.9943 4.32122 39.2214 4.32122 39.2214C4.32122 39.2214 3.30753 39.9739 2.793 40.5599Z" fill="white"/>
<path d="M17.1849 23.5602C17.227 24.5651 17.6434 26.1035 17.6434 26.1035H15.1982C15.1982 26.1035 15.2361 26.8721 15.3511 27.1743C15.4661 27.4765 15.8957 28.219 16.5736 28.9145C17.2336 29.5915 17.6259 30.0368 18.5603 30.3869C18.9598 30.5365 19.6301 30.6546 19.6301 30.6546C19.6301 30.6546 20.1158 31.6699 20.547 32.2609C21.0944 33.0109 21.3883 33.345 22.0752 34.001C22.8169 34.7092 23.3344 35.1675 24.2147 35.7411C25.1358 36.3413 25.7137 36.6553 26.8127 36.9458C28.2422 37.3238 29.1732 37.3539 30.6332 37.0797C31.9905 36.8248 32.7105 36.4449 33.8425 35.7411C34.9167 35.0733 35.41 34.5429 36.2254 33.6663L36.2876 33.5994C37.2709 32.5428 38.4271 30.6546 38.4271 30.6546C38.4271 30.6546 39.2224 30.6008 39.6497 30.3869C40.7195 29.8515 42.0949 28.7806 42.7062 28.1113C43.09 27.6911 43.357 27.4356 43.4703 26.9066C43.5363 26.5984 43.4703 26.2374 43.3174 26.1035C43.1646 25.9696 40.5666 26.1035 40.5666 26.1035C40.5666 26.1035 41.0452 24.3192 41.0251 23.1587C41.0105 22.3159 41.045 21.8462 40.8723 21.017C40.7294 20.3308 40.5302 19.9332 40.261 19.2768C39.9903 18.6168 39.7504 18.2749 39.3441 17.6706C38.823 16.8956 38.4986 16.4683 37.8159 15.7966C37.1698 15.161 36.7786 14.8112 35.982 14.3242C35.1066 13.7889 34.5162 13.6255 33.5368 13.2533C32.7743 12.9635 31.3974 12.584 31.3974 12.584C31.3974 12.584 31.613 11.5257 31.2445 10.9777C30.9875 10.5956 30.7162 10.459 30.3276 10.1746C30.0986 10.007 29.7163 9.77304 29.7163 9.77304C29.7163 9.77304 30.0569 9.02711 30.4804 8.70219C31.0483 8.26655 31.5622 8.22444 32.3143 8.16677C33.2237 8.09702 33.7848 8.22001 34.6066 8.56834C35.3701 8.89198 35.7377 9.20739 36.2876 9.77304C36.9454 10.4496 37.2409 11.3793 37.5102 11.7809C38.0133 12.5311 38.2243 13.0057 38.8856 13.6549C39.5063 14.2641 39.9304 14.5587 40.7195 14.9934C41.6017 15.4795 42.1364 15.6469 43.1646 15.7966C44.1084 15.9339 45.1513 15.8887 45.6098 15.7966C46.42 15.6337 46.806 15.5944 47.4436 15.1273C48.0405 14.69 48.4201 14.3015 48.6662 13.6549C48.987 12.8118 48.8525 12.2529 48.6662 11.3793C48.5276 10.7293 48.0549 9.77304 48.0549 9.77304C48.0549 9.77304 47.8281 11.5005 47.7493 11.9147C47.5965 12.7179 47.518 12.9616 46.9852 13.3872C46.5102 13.7665 46.0947 13.8526 45.4569 13.9226C44.7365 14.0017 44.3034 13.877 43.6231 13.6549C42.9709 13.4419 42.6292 13.2424 42.0949 12.8517C41.4437 12.3756 41.2055 11.9882 40.7195 11.3793C40.0917 10.5928 39.9711 10.0246 39.3441 9.23762C38.6661 8.38672 38.2857 7.87435 37.3574 7.22978L37.317 7.20172C36.5867 6.6945 36.1295 6.37699 35.2179 6.15893C34.2392 5.92482 33.6114 5.97046 32.6199 6.15893C31.7316 6.32779 31.2184 6.49713 30.4804 6.96207C29.6554 7.48188 29.1832 7.87791 28.7994 8.70219C28.5916 9.14846 28.4937 9.9069 28.4937 9.9069C28.4937 9.9069 27.2701 10.5156 26.9655 11.2455C26.7401 11.7855 26.8127 12.7179 26.8127 12.7179C26.8127 12.7179 25.5792 12.8932 24.826 13.1194C23.4606 13.5297 22.7528 13.8119 21.6168 14.5919C20.4538 15.3903 19.8176 16.0463 19.0188 17.1351C18.0899 18.4014 17.8398 19.2756 17.4906 20.7492C17.2347 21.829 17.1388 22.4582 17.1849 23.5602Z" fill="#739536"/>
<path d="M16.7265 51.1346C16.4601 51.9792 15.9624 53.2763 15.9624 53.2763C15.9624 53.2763 17.0396 52.3935 17.7963 51.8039C18.5901 51.1852 19.0797 50.7489 19.9358 50.1976C20.2414 50.0008 21.0055 49.3753 21.9225 48.859C22.8394 48.3427 23.145 48.1897 24.062 47.7882C24.9789 47.3866 26.5071 47.1189 26.5071 47.1189C26.5071 47.1189 25.0396 47.1923 24.6732 47.2528C23.8335 47.3913 23.3337 47.5251 22.5337 47.7882C21.5564 48.1096 21.0864 48.4559 20.2414 48.9929C18.9771 49.7963 17.3378 51.4023 17.3378 51.4023C17.3378 51.4023 17.9912 49.4113 17.6434 48.1897C17.5201 47.7564 17.185 47.1189 17.185 47.1189C17.185 47.1189 17.3405 48.5973 17.185 49.5283C17.0781 50.1681 16.9231 50.5113 16.7265 51.1346Z" fill="white"/>
<path d="M43.1646 54.6148C43.3778 55.3186 43.7759 56.4888 43.7759 56.4888L42.7062 55.5518C42.4005 55.2841 41.3244 54.4754 40.4138 53.8117C39.5326 53.1693 39.0825 52.8868 38.1215 52.3393C37.271 51.8547 35.8292 51.2684 35.8292 51.2684L33.384 50.3314C33.384 50.3314 35.5977 50.5372 36.8989 51.0007C37.7152 51.2915 38.138 51.5291 38.8856 51.9377C39.5037 52.2755 39.8422 52.4792 40.4138 52.8747C40.9117 53.2191 41.1878 53.4188 41.6364 53.8117C42.085 54.2046 42.7062 54.8825 42.7062 54.8825C42.7062 54.8825 42.368 54.2457 42.2477 53.8117C42.1342 53.4021 42.1003 52.9335 42.0949 52.7408C42.0884 52.5096 42.06 51.9012 42.2477 51.4023C42.373 51.0692 42.7062 50.5991 42.7062 50.5991C42.7062 50.5991 42.7291 52.073 42.859 53.0085C42.9466 53.6398 42.9785 54.0001 43.1646 54.6148Z" fill="white"/>
<path d="M6.793 40.5599C6.28756 41.1356 6.05024 41.4988 5.72325 42.1662C5.49995 42.6219 5.40559 42.8906 5.26478 43.3709C4.83408 44.8401 4.97198 45.6465 4.80633 47.2527C4.64068 48.859 4.34787 50.733 4.19503 51.4023C4.04219 52.0716 3.84574 52.8747 4.19504 55.0164C4.48802 56.8127 4.92144 57.778 5.26478 59.5675C5.39487 60.2455 5.21184 60.696 5.57043 61.3076C5.91742 61.8995 6.29831 62.1645 6.94582 62.5123C7.63777 62.8841 8.13999 63.0278 8.93252 63.1816C10.0457 63.3976 11.8361 63.3155 11.8361 63.3155C11.8361 63.3155 15.0406 61.0704 17.0321 59.5675C18.793 58.2385 19.5983 57.3018 21.4639 56.0872C22.8856 55.1617 23.6609 54.5662 25.2844 53.9455C26.3743 53.5289 28.188 53.1424 28.188 53.1424C28.188 53.1424 24.485 54.9865 22.3808 56.4888C20.2874 57.9835 19.3407 59.0488 17.4905 60.7722C16.3327 61.8507 14.5869 63.5832 14.5869 63.5832C14.5869 63.5832 15.0481 67.9023 15.1982 70.6776C15.3564 73.6021 15.0428 75.2582 15.351 78.1735C15.5176 79.7489 15.589 80.6412 15.9623 82.1892C16.2825 83.517 16.4652 84.2725 17.0321 85.5356C17.7552 87.1469 18.2822 88.0383 19.4772 89.4174C20.5998 90.7129 21.4464 91.2867 22.8393 92.3622C24.4689 93.6206 25.4699 94.2433 27.2711 95.3071C29.6648 96.7208 31.2201 97.2099 33.6896 98.5196C36.4227 99.9691 38.1524 100.568 40.5666 102.401C42.1294 103.588 43.1367 104.212 44.2343 105.748C45.1577 107.04 45.54 107.874 45.9154 109.362C46.3173 110.955 46.2272 111.928 46.0796 113.522L46.0682 113.645C45.9162 115.291 45.1513 117.795 45.1513 117.795C45.1513 117.795 47.3455 115.506 48.2077 113.779C48.7826 112.628 48.9971 111.933 49.2774 110.701C49.6629 109.006 49.7381 108.006 49.5831 106.283C49.4589 104.904 49.2734 104.129 48.819 102.803C48.3344 101.39 47.924 100.628 47.1379 99.3228C46.273 97.8865 45.6589 97.1373 44.54 95.8425C43.4929 94.6309 42.7198 94.0845 41.6363 92.8977C40.1675 91.2888 39.3592 90.3659 38.1214 88.6143C36.9131 86.9043 36.2568 85.9184 35.3706 84.0632C34.6423 82.5382 34.3276 81.645 33.8424 80.0475C33.4813 78.8584 33.0783 76.9688 33.0783 76.9688C33.0783 76.9688 34.1501 79.9543 35.065 81.7876C35.9524 83.5656 36.4922 84.5574 37.663 86.2049C38.6345 87.572 39.0768 88.4459 40.4138 89.5513C41.1256 90.1398 42.4004 90.8898 42.4004 90.8898C42.4004 90.8898 40.9721 88.261 40.4138 86.4726C39.9815 85.088 39.8273 84.2854 39.6497 82.8585C39.3909 80.7798 39.5215 79.5922 39.6497 77.5042C39.7915 75.1927 39.9267 73.8898 40.4138 71.6145C40.8566 69.546 41.2946 68.421 41.942 66.3942C42.3948 64.9765 43.1646 62.78 43.1646 62.78C43.1646 62.78 40.3524 60.8855 39.0384 59.2998C38.5813 58.7482 37.9686 57.8274 37.9686 57.8274C37.9686 57.8274 40.6878 60.2196 42.7061 61.4415C44.1797 62.3337 45.4569 63.2954 46.6795 63.4493C47.9911 63.6145 48.8226 63.503 50.0415 63.0478C51.1395 62.6377 52.1279 62.1108 52.4867 61.4415C52.7454 60.9589 52.6864 60.6279 52.7923 60.1029C53.0539 58.8068 53.2014 58.0608 53.4036 56.7565C53.6638 55.0789 54.154 54.1618 54.0149 52.4731C53.945 51.6244 53.7932 51.1567 53.5564 50.3314C53.17 48.9843 52.5869 48.2223 52.3339 46.8512C52.1149 45.6643 52.4051 45.0925 52.1811 43.9063C51.9869 42.8787 51.7858 42.2991 51.2641 41.3631C50.573 40.1229 50.0268 39.4383 48.819 38.5521C48.2077 38.1036 47.309 37.607 46.221 37.2135C45.0838 36.8023 44.0815 36.6781 43.1646 36.6781C41.1779 36.6781 39.0384 37.0064 37.9686 37.2135C36.2876 37.5389 33.384 38.4182 31.7029 38.9536C30.5756 39.3127 29.831 39.3872 28.6465 39.2214C28.0312 39.1352 26.952 38.8397 26.3542 38.6859C24.9788 38.3322 23.6961 37.9189 21.4639 37.4812C19.9219 37.1789 18.2546 36.8698 17.4905 36.8119C16.1824 36.7129 15.0454 36.6781 14.1284 36.8119C13.2115 36.9458 12.607 37.1447 11.6833 37.4812C10.2752 37.9943 8.32122 39.2214 8.32122 39.2214C8.32122 39.2214 7.30753 39.9739 6.793 40.5599Z" fill="#739536"/>
</svg>
